{"glyphs":{"0":{"ha":743,"x_min":54,"x_max":688,"o":"m 80 264 q 67 312 80 264 q 54 486 54 361 q 80 709 54 612 q 150 864 105 806 q 250 951 194 922 q 370 981 305 981 q 491 951 435 981 q 591 864 547 922 q 662 709 636 806 q 688 486 688 612 q 662 264 688 361 q 591 109 636 167 q 491 21 547 50 q 370 -8 435 -8 q 250 21 305 -8 q 150 109 194 50 q 80 264 105 167 m 172 486 q 183 334 172 402 q 213 222 195 267 q 257 147 231 177 q 311 104 283 117 q 370 92 338 92 q 429 104 401 92 q 483 147 457 117 q 528 221 509 177 q 558 334 547 266 q 570 486 570 402 q 553 669 570 591 q 507 793 536 748 q 443 859 477 838 q 370 880 409 880 q 296 859 330 880 q 234 793 262 838 q 189 669 205 748 q 172 486 172 591 z "},"1":{"ha":743,"x_min":56,"x_max":679,"o":"m 56 878 q 81 904 56 898 l 403 975 q 432 967 419 975 q 446 946 446 958 l 446 100 l 652 100 q 673 90 667 100 q 679 58 679 80 l 679 41 q 673 10 679 20 q 652 0 667 0 l 87 0 q 60 41 60 0 l 60 58 q 87 100 60 100 l 329 100 l 329 848 l 83 807 q 63 830 70 807 q 56 878 56 854 z "},"2":{"ha":743,"x_min":71,"x_max":657,"o":"m 71 61 q 77 85 71 79 l 435 534 q 513 653 497 616 q 529 736 529 689 q 482 841 529 802 q 355 880 435 880 q 273 869 312 880 q 213 845 235 859 q 172 821 191 831 q 147 810 154 810 q 120 837 137 810 q 103 879 103 863 q 149 930 103 906 q 251 968 194 955 q 353 981 308 981 q 569 917 489 981 q 648 745 648 854 q 623 614 648 669 q 485 413 594 550 q 331 224 444 362 l 330 222 l 229 98 l 629 98 q 657 57 657 98 l 657 41 q 629 0 657 0 l 98 0 q 78 20 86 0 q 71 61 71 39 z "},"3":{"ha":743,"x_min":62,"x_max":652,"o":"m 62 71 q 81 115 62 90 q 111 140 99 140 q 149 128 119 140 q 228 104 179 116 q 330 92 276 92 q 384 97 357 92 q 437 116 410 102 q 484 151 464 130 q 517 206 505 172 q 530 283 530 240 q 477 425 530 384 q 322 467 423 467 l 277 467 q 249 509 249 467 l 249 524 q 277 566 249 566 l 317 566 q 391 578 357 566 q 444 610 424 591 q 477 655 464 630 q 496 703 491 680 q 501 747 501 726 q 494 791 501 770 q 470 833 487 812 q 419 867 453 854 q 336 880 385 880 q 236 869 281 880 q 168 846 192 857 q 136 835 143 835 q 107 863 125 835 q 90 907 90 890 q 178 958 90 935 q 339 981 266 981 q 543 918 467 981 q 619 734 619 855 q 578 617 619 667 q 476 543 537 568 l 476 538 q 599 451 546 519 q 652 282 652 384 q 633 170 652 220 q 583 87 614 120 q 510 33 551 55 q 427 1 469 11 q 342 -8 385 -8 q 144 17 226 -8 q 62 71 62 43 z "},"4":{"ha":743,"x_min":25,"x_max":717,"o":"m 25 302 q 28 318 25 315 l 485 956 q 532 975 500 975 l 554 975 q 596 945 596 975 l 596 332 l 689 332 q 717 290 717 332 l 717 273 q 689 232 717 232 l 596 232 l 596 28 q 554 -3 596 -3 l 522 -3 q 481 28 481 -3 l 481 232 l 58 232 q 36 257 47 232 q 25 302 25 281 m 163 332 l 481 332 l 481 774 l 475 777 l 163 332 z "},"5":{"ha":743,"x_min":65,"x_max":659,"o":"m 65 75 q 83 119 65 94 q 114 144 102 144 q 150 131 122 144 q 224 105 178 118 q 323 92 271 92 q 477 145 414 92 q 539 296 539 198 q 475 437 539 389 q 289 486 411 486 l 171 486 q 140 496 149 486 q 132 528 132 505 l 155 930 q 200 972 157 972 l 570 972 q 597 930 597 972 l 597 914 q 570 872 597 872 l 268 872 l 250 586 l 322 586 q 415 578 370 586 q 505 549 460 570 q 584 495 550 528 q 638 412 617 463 q 659 296 659 361 q 638 172 659 226 q 586 84 618 117 q 510 30 554 51 q 420 0 465 8 q 325 -8 375 -8 q 141 19 217 -8 q 65 75 65 47 z "},"6":{"ha":743,"x_min":71,"x_max":667,"o":"m 71 343 q 91 504 71 426 q 144 644 111 583 q 219 760 177 706 q 306 853 261 814 q 392 920 350 892 q 468 962 434 948 q 522 975 502 975 q 555 947 541 975 q 568 901 568 920 q 557 886 568 891 q 334 734 420 830 q 214 517 249 638 q 401 562 291 562 q 591 485 515 562 q 667 282 667 408 q 581 73 667 153 q 367 -7 496 -7 q 145 84 220 -7 q 71 343 71 175 m 187 332 q 203 213 187 262 q 248 139 220 163 q 307 103 277 114 q 374 93 338 93 q 433 104 404 93 q 489 137 463 115 q 532 195 515 158 q 549 277 549 231 q 496 417 549 372 q 367 463 444 463 q 193 415 275 463 q 187 332 187 353 z "},"7":{"ha":743,"x_min":77,"x_max":681,"o":"m 77 914 l 77 930 q 104 972 77 972 l 653 972 q 671 947 661 972 q 681 901 681 922 q 677 886 681 897 l 267 20 q 211 -3 255 -3 l 195 -3 q 149 3 163 -3 q 135 22 135 8 q 140 39 135 25 l 542 872 l 104 872 q 77 914 77 872 z "},"8":{"ha":743,"x_min":71,"x_max":672,"o":"m 71 281 q 82 375 71 334 q 116 445 94 416 q 164 492 139 473 q 225 528 190 511 q 110 741 110 596 q 184 918 110 854 q 374 981 259 981 q 564 918 488 981 q 640 741 640 854 q 505 529 640 591 q 570 494 543 512 q 622 447 597 475 q 660 377 647 419 q 672 281 672 335 q 649 152 672 208 q 584 62 625 96 q 489 9 543 27 q 371 -8 435 -8 q 253 9 307 -8 q 158 62 199 27 q 94 152 117 96 q 71 281 71 208 m 191 281 q 242 141 191 190 q 371 92 293 92 q 501 141 449 92 q 553 281 553 191 q 547 328 553 307 q 532 366 541 350 q 508 396 524 382 q 478 420 492 411 q 441 440 465 429 q 402 456 418 450 q 360 471 387 461 q 318 486 332 481 q 224 403 258 451 q 191 281 191 355 m 227 741 q 233 691 227 713 q 252 653 239 669 q 279 624 266 636 q 317 601 293 612 q 358 584 341 590 q 404 567 374 577 q 524 741 524 636 q 481 845 524 810 q 374 880 439 880 q 267 846 308 880 q 227 741 227 811 z "},"9":{"ha":743,"x_min":77,"x_max":672,"o":"m 77 690 q 162 900 77 820 q 376 979 248 979 q 597 888 522 979 q 672 629 672 798 q 645 444 672 534 q 576 287 618 353 q 481 163 533 220 q 379 72 430 107 q 287 17 328 36 q 221 -3 245 -3 q 189 25 202 -3 q 175 71 175 52 q 186 86 175 81 q 408 238 323 142 q 529 456 494 334 q 342 410 450 410 q 153 487 229 410 q 77 690 77 565 m 195 696 q 247 555 195 601 q 376 510 300 510 q 550 557 469 510 q 555 640 555 612 q 539 759 555 710 q 495 833 523 808 q 436 868 467 858 q 370 879 406 879 q 310 868 340 879 q 254 836 281 857 q 211 778 228 814 q 195 696 195 741 z "},"\r":{"ha":333,"x_min":0,"x_max":0,"o":""}," ":{"ha":333,"x_min":0,"x_max":0,"o":""},"!":{"ha":408,"x_min":139,"x_max":293,"o":"m 139 28 l 139 119 q 195 150 139 150 l 218 150 q 273 119 273 150 l 273 28 q 218 -3 273 -3 l 195 -3 q 139 28 139 -3 m 155 311 l 155 945 q 211 975 155 975 l 239 975 q 293 945 293 975 l 256 311 q 212 281 254 281 l 197 281 q 155 311 155 281 z "},"\"":{"ha":443,"x_min":69,"x_max":372,"o":"m 69 928 l 69 945 q 125 975 69 975 l 139 975 q 195 945 195 975 q 163 672 195 937 q 132 656 159 656 l 131 656 q 100 672 104 656 l 69 928 m 248 928 l 248 945 q 302 975 248 975 l 317 975 q 372 945 372 975 q 340 672 372 937 q 310 656 336 656 l 309 656 q 278 672 282 656 l 248 928 z "},"#":{"ha":741,"x_min":18,"x_max":722,"o":"m 18 314 l 18 338 q 46 379 18 379 l 172 379 l 208 583 l 96 583 q 68 625 68 583 l 68 648 q 96 690 68 690 l 227 690 l 269 922 q 282 946 271 939 q 330 953 294 953 l 336 953 q 375 932 375 953 l 329 690 l 494 690 l 536 922 q 550 946 538 939 q 597 953 561 953 l 604 953 q 643 932 643 953 l 600 690 l 694 690 q 722 648 722 690 l 722 625 q 694 583 722 583 l 579 583 l 545 379 l 650 379 q 677 338 677 379 l 677 314 q 650 272 677 272 l 522 272 l 479 28 q 464 4 476 12 q 419 -3 452 -3 l 414 -3 q 384 2 393 -3 q 375 21 375 7 q 419 272 375 28 l 256 272 l 211 28 q 197 4 208 11 q 151 -3 186 -3 l 146 -3 q 116 2 125 -3 q 107 21 107 7 q 151 272 107 28 l 46 272 q 18 314 18 272 m 277 379 l 440 379 l 476 583 l 313 583 l 277 379 z "},"$":{"ha":688,"x_min":49,"x_max":644,"o":"m 49 93 q 67 139 49 110 q 97 168 85 168 q 121 157 102 168 q 165 131 140 145 q 234 105 191 117 q 323 92 277 93 l 323 450 q 182 515 223 490 q 68 688 81 577 q 66 725 66 706 q 136 893 66 827 q 323 972 205 960 l 323 1031 q 351 1053 323 1053 q 379 1031 379 1053 l 379 975 q 471 965 421 975 q 560 936 521 955 q 599 896 599 918 q 582 851 599 880 q 554 822 564 822 q 525 834 547 822 q 464 860 503 847 q 379 875 425 873 l 379 551 q 526 486 482 514 q 644 290 635 418 q 644 265 644 278 q 573 75 644 147 q 379 -7 502 3 l 379 -77 q 351 -98 379 -98 q 323 -77 323 -98 l 323 -8 q 131 28 214 -5 q 49 93 49 62 m 193 720 q 227 632 193 665 q 323 572 260 599 l 323 871 q 228 822 262 861 q 193 720 193 783 m 379 96 q 480 153 441 108 q 518 265 518 199 q 482 362 518 326 q 379 428 446 399 l 379 96 z "},"%":{"ha":1062,"x_min":83,"x_max":979,"o":"m 83 753 q 273 981 83 981 q 327 975 302 981 q 377 954 351 970 q 422 914 404 939 q 452 848 440 890 q 464 753 464 807 q 452 658 464 699 q 421 593 439 617 q 376 554 402 570 q 326 534 350 539 q 273 529 301 529 q 220 534 245 529 q 170 554 195 539 q 125 594 144 570 q 95 659 107 618 q 83 753 83 699 m 175 753 q 178 701 175 723 q 190 655 181 680 q 220 618 199 631 q 273 606 241 606 q 375 753 375 606 q 374 794 375 777 q 366 834 372 812 q 350 871 360 857 q 320 895 340 885 q 273 905 300 905 q 228 895 247 905 q 199 871 209 885 q 183 834 189 857 q 176 794 178 812 q 175 753 175 777 m 224 3 q 229 17 224 9 l 747 954 q 803 981 761 981 l 810 981 q 843 968 843 981 q 838 954 843 965 l 319 17 q 264 -9 306 -9 l 257 -9 q 224 3 224 -9 m 599 216 q 789 444 599 444 q 842 439 817 444 q 893 418 867 433 q 937 378 919 402 q 967 312 956 353 q 979 216 979 271 q 967 122 979 163 q 936 57 955 81 q 891 18 918 33 q 841 -2 865 3 q 789 -7 817 -7 q 735 -2 760 -7 q 685 18 711 3 q 641 57 659 33 q 611 122 623 81 q 599 216 599 163 m 690 216 q 693 165 690 186 q 706 119 696 143 q 736 82 715 95 q 789 69 757 69 q 890 216 890 69 q 889 258 890 240 q 882 298 888 275 q 865 335 876 320 q 836 359 855 349 q 789 370 816 370 q 735 356 756 370 q 705 316 714 342 q 693 269 696 291 q 690 216 690 247 z "},"&":{"ha":866,"x_min":69,"x_max":848,"o":"m 69 282 q 122 451 69 384 q 244 538 174 519 l 244 543 q 142 621 182 568 q 102 747 102 674 q 179 921 102 861 q 382 981 256 981 q 420 979 401 981 q 458 972 439 977 q 488 958 477 968 q 500 936 500 949 q 492 896 500 923 q 469 868 484 868 q 439 874 468 868 q 385 880 411 880 q 312 870 343 880 q 263 844 281 859 q 235 808 246 829 q 221 770 224 787 q 218 734 218 753 q 229 679 218 707 q 260 625 239 651 q 319 583 281 600 q 404 567 356 567 l 568 567 l 585 713 q 629 743 587 743 l 643 743 q 685 713 685 743 l 685 567 l 802 567 q 829 525 829 567 l 829 509 q 802 467 829 467 l 685 467 l 685 195 q 760 92 685 92 q 800 95 783 92 q 819 98 817 98 q 840 73 832 98 q 848 33 848 47 q 747 -8 848 -8 q 606 52 653 -8 q 379 -8 507 -8 q 294 1 336 -8 q 211 33 252 11 q 138 87 170 55 q 88 170 107 120 q 69 282 69 220 m 191 283 q 210 190 191 230 q 260 130 229 151 q 323 101 291 110 q 390 92 355 92 q 571 143 478 92 q 568 183 568 168 l 568 467 l 399 467 q 244 425 298 467 q 191 283 191 384 z "},"'":{"ha":254,"x_min":69,"x_max":195,"o":"m 69 928 l 69 945 q 125 975 69 975 l 139 975 q 195 945 195 975 q 163 672 195 937 q 132 656 159 656 l 131 656 q 100 672 104 656 l 69 928 z "},"(":{"ha":418,"x_min":77,"x_max":403,"o":"m 145 8 q 111 97 145 8 q 77 397 77 187 q 145 787 77 608 q 332 1074 214 966 q 361 1088 346 1088 q 389 1077 374 1088 q 403 1053 403 1066 q 390 1022 403 1039 q 242 748 296 911 q 189 397 189 585 q 242 48 189 211 q 389 -228 296 -115 q 401 -256 401 -243 q 390 -281 401 -267 q 363 -294 378 -294 q 332 -279 347 -294 q 145 8 214 -172 z "},")":{"ha":418,"x_min":12,"x_max":342,"o":"m 12 -257 q 22 -236 12 -249 q 174 41 119 -125 q 229 397 229 207 q 176 747 229 584 q 29 1022 123 909 q 17 1050 17 1036 q 29 1075 17 1061 q 56 1089 41 1089 q 86 1074 71 1089 q 273 786 203 965 q 342 397 342 608 q 273 8 342 187 q 86 -279 203 -171 q 57 -293 73 -293 q 27 -281 42 -293 q 12 -257 12 -269 z "},"*":{"ha":517,"x_min":49,"x_max":454,"o":"m 68 803 q 49 823 49 808 q 57 848 49 838 q 74 857 64 857 q 86 856 82 857 l 224 811 l 224 957 q 230 978 224 972 q 252 985 237 985 q 273 978 267 985 q 279 957 279 972 l 279 811 l 416 856 q 429 857 420 857 q 447 849 439 857 q 454 825 454 840 q 435 803 454 809 l 297 758 l 397 621 q 404 603 404 609 q 394 585 404 594 q 374 575 383 575 q 353 587 361 575 l 252 728 l 150 587 q 129 575 140 575 q 109 584 119 575 q 98 603 98 593 q 106 621 98 611 l 204 758 l 68 803 z "},"+":{"ha":777,"x_min":66,"x_max":711,"o":"m 66 310 l 66 319 q 94 367 66 367 l 343 367 l 343 615 q 385 643 343 643 l 395 643 q 436 615 436 643 l 436 367 l 684 367 q 711 325 711 367 l 711 315 q 684 273 711 273 l 436 273 l 436 25 q 395 -3 436 -3 l 385 -3 q 343 25 343 -3 l 343 273 l 94 273 q 73 281 79 273 q 66 310 66 289 z "},",":{"ha":275,"x_min":17,"x_max":200,"o":"m 17 -140 q 29 -107 17 -132 q 77 106 77 -12 q 91 138 77 126 q 132 150 105 150 l 144 150 q 185 139 170 150 q 200 111 200 129 q 184 -1 200 52 q 146 -88 169 -54 q 99 -142 123 -122 q 57 -161 75 -161 q 17 -140 17 -161 z "},"-":{"ha":444,"x_min":61,"x_max":379,"o":"m 61 361 l 61 375 q 89 416 61 416 l 351 416 q 379 375 379 416 l 379 361 q 351 319 379 319 l 89 319 q 61 361 61 319 z "},".":{"ha":275,"x_min":71,"x_max":205,"o":"m 71 28 l 71 119 q 126 150 71 150 l 150 150 q 205 119 205 150 l 205 28 q 150 -3 205 -3 l 126 -3 q 71 28 71 -3 z "},"/":{"ha":513,"x_min":-14,"x_max":509,"o":"m -14 -78 q -9 -57 -14 -67 l 421 945 q 469 977 435 977 l 475 977 q 509 949 509 977 q 504 928 509 940 l 74 -74 q 28 -106 60 -106 l 22 -106 q -14 -78 -14 -106 z "},":":{"ha":275,"x_min":71,"x_max":205,"o":"m 71 28 l 71 119 q 126 150 71 150 l 150 150 q 205 119 205 150 l 205 28 q 150 -3 205 -3 l 126 -3 q 71 28 71 -3 m 71 607 l 71 699 q 126 729 71 729 l 150 729 q 205 699 205 729 l 205 607 q 150 576 205 576 l 126 576 q 71 607 71 576 z "},";":{"ha":275,"x_min":17,"x_max":205,"o":"m 17 -140 q 29 -107 17 -132 q 77 106 77 -12 q 91 138 77 126 q 132 150 105 150 l 144 150 q 185 139 170 150 q 200 111 200 129 q 184 -1 200 52 q 146 -88 169 -54 q 99 -142 123 -122 q 57 -161 75 -161 q 17 -140 17 -161 m 71 607 l 71 699 q 126 729 71 729 l 150 729 q 205 699 205 729 l 205 607 q 150 576 205 576 l 126 576 q 71 607 71 576 z "},"<":{"ha":777,"x_min":57,"x_max":713,"o":"m 57 304 l 57 328 q 92 376 57 361 l 663 618 q 684 623 674 623 q 705 613 696 623 q 713 586 713 604 l 713 567 q 679 518 713 530 l 184 317 l 679 114 q 713 65 713 100 l 713 46 q 705 19 713 28 q 684 9 696 9 q 663 14 673 9 l 92 256 q 57 304 57 271 z "},"=":{"ha":777,"x_min":66,"x_max":711,"o":"m 66 191 l 66 201 q 109 243 66 243 l 669 243 q 711 201 711 243 l 711 191 q 669 149 711 149 l 109 149 q 78 160 89 149 q 66 191 66 171 m 66 418 l 66 428 q 109 469 66 469 l 669 469 q 711 428 711 469 l 711 418 q 669 376 711 376 l 109 376 q 78 387 89 376 q 66 418 66 398 z "},">":{"ha":777,"x_min":64,"x_max":720,"o":"m 64 45 l 64 64 q 97 113 64 98 l 591 315 l 97 517 q 64 566 64 529 l 64 585 q 72 611 64 602 q 93 621 80 621 q 114 616 104 621 l 685 375 q 720 326 720 360 l 720 302 q 685 254 720 269 l 114 12 q 93 8 104 8 q 72 18 80 8 q 64 45 64 27 z "},"?":{"ha":618,"x_min":66,"x_max":590,"o":"m 66 901 q 144 958 66 935 q 306 981 222 981 q 514 913 439 981 q 590 747 590 846 q 564 647 590 696 q 499 558 538 597 q 421 480 460 518 q 352 397 382 441 q 315 309 321 353 q 303 288 313 294 q 269 281 293 281 l 249 281 q 207 313 207 281 q 238 418 207 360 q 326 533 269 476 q 378 586 362 569 q 417 632 394 603 q 449 684 440 661 q 458 733 458 708 q 283 878 458 878 q 207 866 245 878 q 143 843 169 854 q 111 831 118 831 q 84 859 101 831 q 66 901 66 886 m 189 28 l 189 119 q 244 150 189 150 l 268 150 q 323 119 323 150 l 323 28 q 268 -3 323 -3 l 244 -3 q 189 28 189 -3 z "},"@":{"ha":1352,"x_min":117,"x_max":1204,"o":"m 117 329 q 148 536 117 437 q 236 716 178 636 q 370 855 293 795 q 542 947 446 915 q 742 979 638 979 q 1078 856 951 979 q 1204 528 1204 732 q 1168 299 1204 402 q 1064 136 1131 196 q 913 75 997 75 q 812 109 850 75 q 775 191 775 142 l 775 200 q 587 75 707 75 q 536 82 562 75 q 482 106 510 88 q 434 151 454 123 q 399 223 413 178 q 386 328 386 269 q 466 597 386 493 q 679 701 547 701 q 833 636 768 701 q 841 657 837 644 q 847 675 845 670 q 854 687 850 680 q 865 695 859 693 q 882 697 871 697 l 890 697 q 921 668 921 697 q 875 207 875 240 q 880 179 875 191 q 890 161 884 167 q 905 152 896 155 q 919 149 914 149 q 930 149 924 149 q 1027 201 981 149 q 1101 341 1073 253 q 1129 528 1129 429 q 1023 811 1129 703 q 742 918 916 918 q 526 872 628 918 q 351 748 424 826 q 235 560 277 669 q 192 329 192 451 q 296 8 192 131 q 570 -114 401 -114 q 674 -104 629 -114 q 746 -84 720 -94 q 783 -74 772 -74 q 803 -106 803 -74 q 757 -148 803 -131 q 662 -170 711 -164 q 570 -175 613 -175 q 334 -112 437 -175 q 174 66 231 -49 q 117 329 117 180 m 488 335 q 610 160 488 160 q 706 205 657 160 q 789 355 754 251 q 815 568 806 538 q 688 615 759 615 q 589 592 630 615 q 527 527 549 568 q 497 439 506 486 q 488 335 488 392 z "},"A":{"ha":851,"x_min":17,"x_max":835,"o":"m 17 21 q 21 40 17 28 l 350 953 q 406 975 357 975 l 446 975 q 501 953 494 975 l 831 39 q 835 21 835 28 q 775 -3 835 -3 l 764 -3 q 708 20 715 -3 l 627 248 l 218 248 l 139 20 q 83 -3 132 -3 l 77 -3 q 17 21 17 -3 m 257 353 l 589 353 l 443 766 q 427 847 435 789 l 424 847 q 403 766 413 795 l 257 353 z "},"B":{"ha":823,"x_min":135,"x_max":778,"o":"m 135 41 l 135 930 q 145 962 135 952 q 176 972 155 972 l 425 972 q 656 906 576 972 q 736 726 736 839 q 690 595 736 657 q 583 515 644 532 l 583 510 q 604 504 591 508 q 651 481 617 499 q 710 440 684 463 q 757 374 736 416 q 778 279 778 331 q 415 0 778 0 l 176 0 q 145 10 155 0 q 135 41 135 20 m 257 106 l 460 106 q 602 154 551 106 q 652 285 652 201 q 597 405 652 362 q 436 447 542 447 l 257 447 l 257 106 m 257 553 l 418 553 q 555 600 501 553 q 610 715 610 647 q 563 830 610 793 q 412 867 515 867 l 257 867 l 257 553 z "},"C":{"ha":859,"x_min":79,"x_max":814,"o":"m 79 486 q 529 981 79 981 q 711 952 629 981 q 794 895 794 924 q 777 845 794 876 q 747 814 760 814 q 725 823 743 814 q 684 844 707 833 q 619 865 661 856 q 532 875 577 875 q 284 782 363 875 q 205 485 205 688 q 284 191 205 286 q 526 97 362 97 q 621 108 575 97 q 693 132 667 119 q 740 156 719 145 q 765 167 760 167 q 796 136 778 167 q 814 92 814 106 q 791 60 814 77 q 732 27 769 43 q 640 2 694 12 q 526 -8 585 -8 q 189 112 298 -8 q 79 486 79 233 z "},"D":{"ha":965,"x_min":135,"x_max":886,"o":"m 135 41 l 135 930 q 145 962 135 952 q 176 972 155 972 l 457 972 q 594 957 531 972 q 711 904 656 941 q 804 813 766 868 q 864 674 842 758 q 886 486 886 591 q 853 259 886 355 q 761 107 821 163 q 625 26 701 52 q 457 0 550 0 l 176 0 q 145 10 155 0 q 135 41 135 20 m 257 106 l 447 106 q 569 127 514 106 q 668 191 625 148 q 735 310 711 235 q 760 486 760 385 q 735 662 760 587 q 668 781 711 737 q 569 846 625 825 q 447 867 514 867 l 257 867 l 257 106 z "},"E":{"ha":758,"x_min":135,"x_max":690,"o":"m 135 41 l 135 930 q 145 962 135 952 q 176 972 155 972 l 661 972 q 689 930 689 972 l 689 908 q 661 867 689 867 l 257 867 l 257 550 l 619 550 q 647 509 647 550 l 647 486 q 619 444 647 444 l 257 444 l 257 106 l 663 106 q 690 64 690 106 l 690 41 q 663 0 690 0 l 176 0 q 145 10 155 0 q 135 41 135 20 z "},"F":{"ha":699,"x_min":135,"x_max":642,"o":"m 135 28 l 135 930 q 145 962 135 952 q 176 972 155 972 l 614 972 q 642 930 642 972 l 642 908 q 614 867 642 867 l 257 867 l 257 550 l 589 550 q 616 509 616 550 l 616 486 q 589 444 616 444 l 257 444 l 257 28 q 201 -3 257 -3 l 191 -3 q 135 28 135 -3 z "},"G":{"ha":933,"x_min":79,"x_max":818,"o":"m 79 478 q 529 981 79 981 q 711 952 629 981 q 794 895 794 924 q 777 845 794 876 q 747 814 760 814 q 725 823 743 814 q 684 844 707 833 q 619 865 661 856 q 532 875 577 875 q 377 849 441 875 q 276 772 314 823 q 222 653 239 722 q 205 490 205 584 q 214 368 205 423 q 244 260 222 312 q 300 174 266 209 q 390 118 334 139 q 517 97 445 97 q 696 115 624 97 l 696 396 l 533 396 q 505 437 505 396 l 505 460 q 533 501 505 501 l 777 501 q 808 491 798 501 q 818 460 818 481 l 818 92 q 792 43 818 64 q 722 12 767 23 q 624 -3 677 1 q 509 -8 572 -8 q 189 113 298 -8 q 79 478 79 233 z "},"H":{"ha":1018,"x_min":135,"x_max":882,"o":"m 135 28 l 135 945 q 191 975 135 975 l 201 975 q 257 945 257 975 l 257 551 l 760 551 l 760 945 q 815 975 760 975 l 827 975 q 882 945 882 975 l 882 28 q 827 -3 882 -3 l 815 -3 q 760 28 760 -3 l 760 446 l 257 446 l 257 28 q 201 -3 257 -3 l 191 -3 q 135 28 135 -3 z "},"I":{"ha":391,"x_min":135,"x_max":257,"o":"m 135 28 l 135 945 q 191 975 135 975 l 201 975 q 257 945 257 975 l 257 28 q 201 -3 257 -3 l 191 -3 q 135 28 135 -3 z "},"J":{"ha":558,"x_min":8,"x_max":443,"o":"m 8 36 q 16 81 8 50 q 39 113 24 113 q 70 106 40 113 q 126 100 100 100 q 275 140 229 100 q 321 271 321 181 l 321 945 q 376 975 321 975 l 387 975 q 443 945 443 975 l 443 285 q 149 -8 443 -8 q 104 -6 125 -8 q 59 0 82 -5 q 22 14 36 4 q 8 36 8 23 z "},"K":{"ha":800,"x_min":135,"x_max":814,"o":"m 135 28 l 135 945 q 191 975 135 975 l 201 975 q 257 945 257 975 l 257 519 l 262 519 l 604 956 q 679 975 620 975 l 693 975 q 729 970 717 975 q 742 957 742 964 q 728 929 742 945 l 380 496 l 802 39 q 814 17 814 24 q 800 1 814 5 q 753 -3 786 -3 l 736 -3 q 705 -2 715 -3 q 682 3 695 -1 q 660 16 668 7 l 262 463 l 257 463 l 257 28 q 201 -3 257 -3 l 191 -3 q 135 28 135 -3 z "},"L":{"ha":672,"x_min":135,"x_max":667,"o":"m 135 41 l 135 945 q 191 975 135 975 l 201 975 q 257 945 257 975 l 257 106 l 639 106 q 667 64 667 106 l 667 41 q 639 0 667 0 l 176 0 q 145 10 155 0 q 135 41 135 20 z "},"M":{"ha":1171,"x_min":125,"x_max":1046,"o":"m 125 28 l 125 945 q 180 975 125 975 l 231 975 q 289 950 276 975 l 551 494 l 587 407 l 624 486 l 886 950 q 945 975 899 975 l 990 975 q 1046 945 1046 975 l 1046 28 q 990 -3 1046 -3 l 981 -3 q 925 28 925 -3 l 925 775 l 922 770 l 646 289 q 615 271 635 271 l 559 271 q 529 289 539 271 l 249 778 l 245 783 l 245 28 q 191 -3 245 -3 l 180 -3 q 125 28 125 -3 z "},"N":{"ha":998,"x_min":125,"x_max":873,"o":"m 125 28 l 125 945 q 180 975 125 975 l 210 975 q 245 969 233 975 q 268 949 258 964 l 711 279 l 753 201 l 753 945 q 808 975 753 975 l 818 975 q 873 945 873 975 l 873 28 q 818 -3 873 -3 l 790 -3 q 742 17 755 -3 l 283 708 l 245 779 l 245 28 q 191 -3 245 -3 l 180 -3 q 125 28 125 -3 z "},"O":{"ha":1015,"x_min":79,"x_max":936,"o":"m 79 489 q 189 856 79 732 q 507 981 298 981 q 827 856 718 981 q 936 489 936 732 q 826 119 936 245 q 507 -8 717 -8 q 189 119 298 -8 q 79 489 79 245 m 205 489 q 283 197 205 298 q 507 97 360 97 q 732 197 654 97 q 810 489 810 298 q 732 777 810 680 q 507 875 655 875 q 282 777 359 875 q 205 489 205 680 z "},"P":{"ha":791,"x_min":118,"x_max":751,"o":"m 118 28 l 118 930 q 160 972 118 972 l 441 972 q 520 967 482 972 q 602 944 557 962 q 677 898 646 926 q 730 818 709 869 q 751 700 751 767 q 739 604 751 648 q 706 532 726 561 q 657 481 686 503 q 602 446 629 458 q 546 426 575 434 q 495 416 516 418 q 456 414 474 414 l 240 414 l 240 28 q 184 -3 240 -3 l 174 -3 q 118 28 118 -3 m 240 519 l 457 519 q 508 527 482 519 q 561 552 533 534 q 607 609 589 570 q 625 700 625 647 q 613 770 625 739 q 583 818 602 800 q 538 847 564 836 q 489 863 513 859 q 437 867 465 867 l 240 867 l 240 519 z "},"Q":{"ha":1015,"x_min":79,"x_max":950,"o":"m 79 482 q 189 853 79 726 q 507 981 298 981 q 826 853 717 981 q 936 482 936 726 q 864 164 936 286 q 657 7 793 43 l 657 1 l 930 -85 q 950 -106 950 -92 q 931 -165 950 -125 q 892 -205 913 -205 q 637 -110 881 -205 q 342 8 394 -14 q 79 482 79 112 m 205 482 q 284 193 205 294 q 507 93 363 93 q 731 194 652 93 q 810 482 810 294 q 731 773 810 671 q 507 875 652 875 q 284 773 363 875 q 205 482 205 672 z "},"R":{"ha":847,"x_min":135,"x_max":822,"o":"m 135 28 l 135 930 q 145 962 135 952 q 176 972 155 972 l 410 972 q 660 913 576 972 q 745 726 745 854 q 702 581 745 640 q 585 492 660 522 l 585 486 q 652 432 625 473 q 710 313 680 391 l 818 39 q 822 20 822 26 q 764 -3 822 -3 l 750 -3 q 694 20 703 -3 l 589 292 q 513 399 559 370 q 382 428 467 428 l 257 428 l 257 28 q 201 -3 257 -3 l 191 -3 q 135 28 135 -3 m 257 533 l 440 533 q 566 584 514 533 q 618 704 618 635 q 568 826 618 786 q 431 867 518 867 l 257 867 l 257 533 z "},"S":{"ha":694,"x_min":52,"x_max":647,"o":"m 52 93 q 70 139 52 110 q 100 168 88 168 q 125 157 104 168 q 172 133 146 146 q 244 108 199 119 q 339 97 290 97 q 470 142 419 97 q 521 261 521 188 q 508 319 521 292 q 482 361 495 345 q 433 396 469 377 q 382 422 398 416 q 319 447 366 429 q 311 450 314 449 l 311 450 l 310 451 l 309 451 l 309 452 l 308 452 l 307 452 l 307 452 l 305 452 q 169 519 209 490 q 69 708 75 585 q 69 724 69 716 q 154 909 69 837 q 378 981 239 981 q 471 970 420 981 q 562 940 522 960 q 602 896 602 920 q 584 851 602 880 q 557 822 567 822 q 527 835 551 822 q 464 862 504 848 q 375 875 423 875 q 245 834 294 875 q 196 718 196 793 q 208 659 196 684 q 249 614 219 634 q 299 586 279 595 q 367 559 319 577 q 385 553 378 555 q 432 534 415 541 q 477 514 449 527 q 522 489 505 501 q 562 460 539 477 q 597 424 584 443 q 623 380 610 404 q 641 326 635 356 q 647 261 647 296 q 564 64 647 136 q 339 -8 480 -8 q 226 2 281 -8 q 134 28 171 13 q 74 61 96 44 q 52 93 52 79 z "},"T":{"ha":762,"x_min":28,"x_max":734,"o":"m 28 908 l 28 930 q 56 972 28 972 l 707 972 q 734 930 734 972 l 734 908 q 707 867 734 867 l 444 867 l 444 28 q 389 -3 444 -3 l 378 -3 q 322 28 322 -3 l 322 867 l 56 867 q 28 908 28 867 z "},"U":{"ha":989,"x_min":115,"x_max":873,"o":"m 115 311 l 115 945 q 171 975 115 975 l 182 975 q 237 945 237 975 l 237 307 q 310 156 237 215 q 494 97 383 97 q 679 156 606 97 q 751 307 751 216 l 751 945 q 807 975 751 975 l 818 975 q 873 945 873 975 l 873 311 q 775 76 873 160 q 494 -8 676 -8 q 214 76 312 -8 q 115 311 115 160 z "},"V":{"ha":857,"x_min":29,"x_max":828,"o":"m 29 951 q 89 975 29 975 l 102 975 q 157 953 149 975 l 414 211 l 428 139 l 432 139 l 447 212 l 704 953 q 760 975 711 975 l 768 975 q 828 951 828 975 q 823 932 828 946 l 505 20 q 450 -3 498 -3 l 407 -3 q 351 20 359 -3 l 33 933 q 29 951 29 943 z "},"W":{"ha":1225,"x_min":21,"x_max":1204,"o":"m 21 951 q 81 975 21 975 l 94 975 q 150 953 144 975 l 326 269 q 336 221 330 253 q 347 166 342 190 q 351 140 351 142 l 385 273 l 553 951 q 607 975 558 975 l 629 975 q 684 951 678 975 l 856 268 q 867 214 861 246 q 876 161 873 182 l 879 140 l 913 272 l 1080 953 q 1136 975 1086 975 l 1145 975 q 1204 951 1204 975 q 1200 932 1204 951 l 960 20 q 904 -3 954 -3 l 847 -3 q 791 20 797 -3 l 640 585 l 611 765 l 582 585 l 431 20 q 375 -3 425 -3 l 318 -3 q 262 20 268 -3 l 25 932 q 21 951 21 948 z "},"X":{"ha":848,"x_min":28,"x_max":822,"o":"m 28 21 q 39 46 28 31 l 350 507 l 72 926 q 61 951 61 941 q 125 975 61 975 l 144 975 q 204 954 191 975 l 427 619 l 656 956 q 715 975 668 975 l 724 975 q 773 970 758 975 q 787 951 787 964 q 777 926 787 945 l 498 514 l 811 46 q 822 21 822 31 q 758 -3 822 -3 l 736 -3 q 676 18 690 -3 l 421 400 l 163 17 q 103 -3 151 -3 l 92 -3 q 42 3 57 -3 q 28 21 28 8 z "},"Y":{"ha":776,"x_min":25,"x_max":751,"o":"m 25 951 q 89 975 25 975 l 104 975 q 164 954 151 975 l 392 612 l 625 956 q 688 975 637 975 l 697 975 q 751 951 751 973 q 741 926 751 945 l 449 494 l 449 28 q 393 -3 449 -3 l 382 -3 q 326 28 326 -3 l 326 498 l 36 926 q 25 951 25 941 z "},"Z":{"ha":855,"x_min":53,"x_max":793,"o":"m 53 74 q 57 90 53 84 l 627 867 l 126 867 q 98 914 98 867 l 98 925 q 126 972 98 972 l 762 972 q 781 946 770 972 q 793 899 793 920 q 789 882 793 888 l 220 106 l 762 106 q 790 58 790 106 l 790 47 q 762 0 790 0 l 86 0 q 64 26 76 0 q 53 74 53 53 z "},"[":{"ha":404,"x_min":125,"x_max":363,"o":"m 125 -150 l 125 1025 q 167 1067 125 1067 l 335 1067 q 356 1057 350 1067 q 363 1026 363 1048 l 363 1019 q 356 988 363 998 q 335 979 350 979 l 228 979 l 228 -106 l 335 -106 q 356 -115 350 -106 q 363 -146 363 -124 l 363 -151 q 356 -182 363 -173 q 335 -192 350 -192 l 167 -192 q 125 -150 125 -192 z "},"\\":{"ha":501,"x_min":7,"x_max":496,"o":"m 7 947 q 40 975 7 975 l 46 975 q 94 943 81 975 l 492 21 q 496 0 496 11 q 460 -28 496 -28 l 454 -28 q 408 4 422 -28 l 11 926 q 7 947 7 937 z "},"]":{"ha":404,"x_min":41,"x_max":279,"o":"m 41 -146 q 48 -115 41 -124 q 69 -106 54 -106 l 176 -106 l 176 979 l 69 979 q 48 988 54 979 q 41 1019 41 998 l 41 1026 q 48 1057 41 1048 q 69 1067 54 1067 l 237 1067 q 279 1025 279 1067 l 279 -150 q 237 -192 279 -192 l 69 -192 q 48 -182 54 -192 q 41 -151 41 -173 l 41 -146 z "},"^":{"ha":625,"x_min":74,"x_max":551,"o":"m 74 473 q 78 493 74 483 l 252 922 q 269 944 258 939 q 298 950 279 950 l 326 950 q 356 944 345 950 q 374 922 367 939 l 547 493 q 551 473 551 483 q 514 444 551 444 l 509 444 q 460 476 471 444 l 313 839 l 164 476 q 117 444 151 444 l 111 444 q 74 473 74 444 z "},"_":{"ha":741,"x_min":-29,"x_max":771,"o":"m -29 -153 q -23 -131 -29 -138 q -1 -125 -16 -125 l 743 -125 q 765 -131 758 -125 q 771 -153 771 -138 l 771 -164 q 765 -185 771 -179 q 743 -192 758 -192 l -1 -192 q -23 -185 -16 -192 q -29 -164 -29 -179 l -29 -153 z "},"`":{"ha":444,"x_min":103,"x_max":336,"o":"m 103 999 q 170 1017 103 1017 q 256 981 235 1017 q 322 862 309 888 q 336 827 336 836 q 304 812 336 812 q 233 838 256 812 q 182 897 213 861 q 115 974 127 958 q 103 999 103 989 z "},"a":{"ha":757,"x_min":68,"x_max":663,"o":"m 68 200 q 77 270 68 238 q 101 326 86 302 q 140 369 116 350 q 190 401 165 389 q 250 424 215 414 q 315 438 285 433 q 386 447 345 444 q 457 452 426 450 q 529 453 488 453 l 529 518 q 493 603 529 570 q 376 635 457 635 q 270 620 321 635 q 191 591 220 606 q 160 576 163 576 q 129 604 146 576 q 111 646 111 632 q 146 684 111 664 q 244 720 182 705 q 372 734 307 734 q 574 677 502 734 q 646 517 646 620 l 646 205 q 647 144 646 174 q 651 96 649 115 q 656 63 654 77 q 661 40 659 48 q 663 31 663 32 q 636 6 663 14 q 587 -1 610 -1 q 575 2 581 -1 q 565 12 569 5 q 557 24 560 18 q 551 42 554 31 q 547 59 548 53 q 543 79 545 66 q 539 96 540 92 q 306 -8 445 -8 q 134 44 199 -8 q 68 200 68 97 m 193 207 q 223 122 193 151 q 311 93 253 93 q 429 118 380 93 q 529 189 477 143 l 529 353 q 328 338 388 351 q 193 207 193 310 z "},"b":{"ha":790,"x_min":118,"x_max":715,"o":"m 118 28 l 118 1014 q 174 1044 118 1044 l 179 1044 q 235 1014 235 1044 l 235 664 q 433 734 327 734 q 638 637 561 734 q 715 364 715 541 q 642 96 715 199 q 446 -8 569 -8 q 225 96 325 -8 q 203 14 219 56 q 165 -3 195 -3 l 160 -3 q 118 28 118 -3 m 235 189 q 326 118 277 143 q 422 93 376 93 q 549 166 505 93 q 593 374 593 239 q 546 564 593 498 q 407 632 499 630 q 235 570 311 632 l 235 189 z "},"c":{"ha":673,"x_min":72,"x_max":632,"o":"m 72 367 q 91 516 72 451 q 142 622 111 582 q 217 688 173 663 q 306 724 260 714 q 401 734 351 734 q 546 715 482 734 q 610 671 610 696 q 594 624 610 652 q 566 596 578 596 q 562 597 564 596 q 557 599 560 597 q 550 602 553 600 q 399 635 473 635 q 197 370 197 635 q 247 157 197 222 q 412 92 296 92 q 570 127 496 92 q 577 130 573 129 q 582 133 581 132 q 585 134 584 134 q 615 106 598 134 q 632 62 632 79 q 566 15 632 37 q 414 -8 500 -8 q 157 81 241 -8 q 72 367 72 170 z "},"d":{"ha":785,"x_min":72,"x_max":686,"o":"m 72 363 q 149 637 72 540 q 354 734 227 734 q 553 664 460 734 l 553 1014 q 608 1044 553 1044 l 614 1044 q 669 1014 669 1044 l 669 205 q 671 144 669 174 q 675 96 673 115 q 681 63 678 77 q 685 40 683 48 q 686 31 686 32 q 660 6 686 14 q 611 -1 634 -1 q 598 2 604 -1 q 588 12 593 5 q 581 24 584 19 q 574 42 577 30 q 570 59 571 54 q 566 78 568 64 q 562 96 563 92 q 342 -8 463 -8 q 198 40 260 -8 q 104 172 136 87 q 72 363 72 256 m 195 374 q 239 166 195 239 q 366 93 283 93 q 461 118 412 93 q 553 189 511 143 l 553 570 q 382 632 477 632 q 242 564 289 630 q 195 374 195 498 z "},"e":{"ha":748,"x_min":77,"x_max":686,"o":"m 77 358 q 159 638 77 543 q 400 734 241 734 q 614 642 543 734 q 686 372 686 550 q 669 337 686 359 q 640 315 652 315 l 201 315 q 261 145 210 199 q 415 92 312 92 q 495 101 456 92 q 557 121 534 110 q 597 141 580 132 q 618 150 614 150 q 649 122 631 150 q 667 81 667 94 q 647 53 667 68 q 595 24 627 37 q 514 1 562 10 q 416 -8 467 -8 q 160 82 243 -8 q 77 358 77 172 m 201 415 l 562 415 q 396 635 562 635 q 201 415 216 635 z "},"f":{"ha":451,"x_min":66,"x_max":431,"o":"m 66 668 l 66 685 q 94 726 66 726 l 150 726 l 150 859 q 162 942 150 906 q 193 998 174 978 q 236 1030 211 1017 q 283 1046 262 1042 q 329 1050 305 1050 q 431 1008 431 1050 q 422 969 431 994 q 401 943 414 943 q 382 947 399 943 q 342 950 366 950 q 286 930 306 950 q 267 847 267 909 l 267 726 l 387 726 q 415 685 415 726 l 415 668 q 387 627 415 627 l 267 627 l 267 28 q 211 -3 267 -3 l 205 -3 q 150 28 150 -3 l 150 627 l 94 627 q 66 668 66 627 z "},"g":{"ha":758,"x_min":64,"x_max":730,"o":"m 102 -222 q 83 -202 102 -222 q 64 -122 64 -182 q 99 -17 64 -62 q 191 52 134 28 l 192 54 q 136 168 136 98 q 214 313 136 259 q 125 393 155 341 q 94 509 94 444 q 166 671 94 607 q 368 734 239 734 q 450 726 412 734 l 703 726 q 730 685 730 726 l 730 668 q 703 627 730 627 q 606 631 646 627 l 604 628 q 640 509 640 578 q 568 345 640 409 q 367 281 496 281 q 268 257 301 279 q 235 184 235 235 q 238 158 235 170 q 251 137 242 146 q 268 121 259 128 q 292 110 277 115 q 319 101 307 104 q 351 95 331 98 q 385 90 372 92 q 422 86 398 89 q 458 82 446 83 q 522 72 495 77 q 577 54 548 66 q 625 25 607 42 q 656 -20 644 8 q 668 -85 668 -48 q 587 -240 668 -186 q 351 -294 507 -294 q 202 -278 264 -294 q 102 -222 140 -261 m 168 -100 q 367 -200 168 -200 q 557 -97 557 -200 q 537 -49 557 -67 q 481 -22 517 -31 q 410 -10 446 -14 q 330 -1 374 -6 q 260 12 286 4 q 168 -100 168 -26 m 201 507 q 367 374 201 374 q 533 507 533 374 q 367 642 533 642 q 201 507 201 642 z "},"h":{"ha":785,"x_min":127,"x_max":677,"o":"m 127 28 l 127 1014 q 183 1044 127 1044 l 189 1044 q 244 1014 244 1044 l 244 639 q 340 707 286 680 q 457 734 395 734 q 514 729 487 734 q 573 709 542 724 q 626 671 604 694 q 663 606 648 647 q 677 510 677 564 l 677 28 q 623 -3 677 -3 l 616 -3 q 561 28 561 -3 l 561 498 q 525 597 561 562 q 419 633 488 633 q 361 624 390 633 q 312 599 332 614 q 276 570 292 585 q 252 547 260 556 l 244 536 l 244 28 q 189 -3 244 -3 l 183 -3 q 127 28 127 -3 z "},"i":{"ha":368,"x_min":121,"x_max":249,"o":"m 121 932 l 121 1014 q 176 1044 121 1044 l 193 1044 q 249 1014 249 1044 l 249 932 q 193 901 249 901 l 176 901 q 121 932 121 901 m 126 28 l 126 699 q 182 729 126 729 l 187 729 q 243 699 243 729 l 243 28 q 187 -3 243 -3 l 182 -3 q 126 28 126 -3 z "},"j":{"ha":383,"x_min":-24,"x_max":262,"o":"m -24 -253 q -16 -213 -24 -239 q 5 -187 -7 -187 q 25 -191 8 -187 q 65 -195 41 -195 q 140 -92 140 -195 l 140 699 q 196 729 140 729 l 201 729 q 257 699 257 729 l 257 -103 q 245 -185 257 -149 q 214 -240 233 -220 q 171 -273 196 -260 q 123 -290 146 -286 q 78 -294 101 -294 q -24 -253 -24 -294 m 135 932 l 135 1014 q 191 1044 135 1044 l 207 1044 q 262 1014 262 1044 l 262 932 q 207 901 262 901 l 191 901 q 135 932 135 901 z "},"k":{"ha":724,"x_min":131,"x_max":672,"o":"m 131 28 l 131 1014 q 186 1044 131 1044 l 192 1044 q 248 1014 248 1044 l 248 393 l 253 393 l 518 710 q 591 729 533 729 l 597 729 q 646 711 646 729 q 632 684 646 699 l 374 378 l 660 39 q 672 17 672 24 q 658 1 672 5 q 611 -3 644 -3 l 606 -3 q 530 16 545 -3 l 253 345 l 248 345 l 248 28 q 192 -3 248 -3 l 186 -3 q 131 28 131 -3 z "},"l":{"ha":412,"x_min":114,"x_max":395,"o":"m 114 183 l 114 1014 q 170 1044 114 1044 l 175 1044 q 231 1014 231 1044 l 231 195 q 306 92 231 92 q 346 95 330 92 q 366 98 363 98 q 387 73 378 98 q 395 33 395 47 q 293 -8 395 -8 q 248 -4 270 -8 q 200 13 225 0 q 157 46 175 26 q 126 101 138 66 q 114 183 114 137 z "},"m":{"ha":1177,"x_min":102,"x_max":1074,"o":"m 102 690 q 127 715 102 707 q 176 722 153 722 q 189 720 183 722 q 199 710 195 717 q 207 698 203 703 q 213 682 210 692 q 218 665 216 671 q 222 647 219 659 q 225 631 224 634 q 319 705 264 675 q 436 734 374 734 q 491 729 465 734 q 546 712 517 724 q 598 677 574 701 q 635 619 621 653 q 735 702 677 670 q 856 734 793 734 q 913 729 886 734 q 970 709 940 724 q 1023 671 1001 694 q 1059 606 1044 647 q 1074 510 1074 564 l 1074 28 q 1018 -3 1074 -3 l 1013 -3 q 957 28 957 -3 l 957 498 q 923 597 957 562 q 823 633 888 633 q 653 536 735 633 q 654 509 654 527 l 654 28 q 599 -3 654 -3 l 593 -3 q 538 28 538 -3 l 538 498 q 504 597 538 562 q 404 633 469 633 q 348 624 376 633 q 300 600 320 614 q 265 572 281 586 q 242 548 250 557 l 235 538 l 235 28 q 179 -3 235 -3 l 174 -3 q 118 28 118 -3 l 118 515 q 116 576 118 547 q 112 625 115 606 q 107 658 110 644 q 103 681 105 673 q 102 690 102 689 z "},"n":{"ha":773,"x_min":103,"x_max":669,"o":"m 103 690 q 129 715 103 707 q 178 722 155 722 q 190 720 184 722 q 200 710 196 717 q 208 698 205 703 q 215 682 212 692 q 219 665 218 671 q 223 647 220 659 q 227 631 226 634 q 328 707 271 680 q 443 734 385 734 q 609 675 549 734 q 669 510 669 615 l 669 28 q 614 -3 669 -3 l 608 -3 q 553 28 553 -3 l 553 498 q 515 598 553 562 q 411 633 478 633 q 317 607 364 633 q 236 536 271 581 l 236 28 q 180 -3 236 -3 l 175 -3 q 119 28 119 -3 l 119 515 q 118 576 119 547 q 114 625 116 606 q 109 658 111 644 q 105 681 106 673 q 103 690 103 689 z "},"o":{"ha":790,"x_min":77,"x_max":714,"o":"m 77 359 q 160 637 77 540 q 399 734 243 734 q 633 637 551 734 q 714 359 714 541 q 634 85 714 179 q 399 -8 554 -8 q 159 86 241 -8 q 77 359 77 180 m 199 363 q 246 158 199 224 q 395 92 293 92 q 545 158 496 92 q 593 363 593 224 q 545 568 593 502 q 395 635 496 635 q 246 569 294 635 q 199 363 199 503 z "},"p":{"ha":795,"x_min":103,"x_max":717,"o":"m 103 690 q 129 715 103 707 q 178 722 155 722 q 190 720 184 722 q 200 710 196 717 q 208 698 205 703 q 215 682 212 692 q 219 665 218 671 q 223 647 220 659 q 227 631 226 634 q 447 734 326 734 q 593 686 531 734 q 686 554 654 637 q 717 363 717 471 q 640 89 717 186 q 435 -8 562 -8 q 236 62 328 -8 l 236 -258 q 180 -289 236 -289 l 175 -289 q 119 -258 119 -289 l 119 515 q 118 576 119 547 q 114 625 116 606 q 109 658 111 644 q 105 681 106 673 q 103 690 103 689 m 236 157 q 408 94 312 94 q 548 162 500 96 q 595 353 595 228 q 550 560 595 487 q 424 633 506 633 q 328 609 377 633 q 236 538 278 584 l 236 157 z "},"q":{"ha":786,"x_min":72,"x_max":669,"o":"m 72 361 q 145 631 72 527 q 342 734 218 734 q 562 631 463 734 q 585 713 572 680 q 623 729 592 729 l 628 729 q 669 699 669 729 l 669 -258 q 614 -289 669 -289 l 608 -289 q 553 -258 553 -289 l 553 62 q 354 -8 460 -8 q 149 89 227 -8 q 72 361 72 186 m 195 353 q 241 162 195 228 q 380 94 288 96 q 553 157 477 94 l 553 538 q 461 609 511 584 q 366 633 412 633 q 239 560 283 633 q 195 353 195 487 z "},"r":{"ha":508,"x_min":109,"x_max":473,"o":"m 109 690 q 134 715 109 707 q 183 722 160 722 q 196 720 190 722 q 206 710 201 717 q 214 698 210 703 q 220 682 217 692 q 224 665 223 671 q 229 647 226 659 q 232 631 231 634 q 393 734 306 734 q 453 720 433 734 q 473 681 473 705 q 465 632 473 658 q 446 606 457 606 q 418 613 440 606 q 370 621 397 621 q 329 612 349 621 q 293 591 309 603 q 266 566 278 578 q 248 545 254 554 l 241 536 l 241 28 q 186 -3 241 -3 l 180 -3 q 125 28 125 -3 l 125 515 q 123 576 125 547 q 119 625 121 606 q 114 658 117 644 q 110 681 112 673 q 109 690 109 689 z "},"s":{"ha":573,"x_min":49,"x_max":515,"o":"m 49 75 q 66 117 49 89 q 97 144 83 144 q 120 131 98 144 q 179 103 141 117 q 261 89 218 89 q 397 201 397 89 q 367 276 397 248 q 258 326 336 303 q 107 406 149 359 q 65 534 65 454 q 130 679 65 622 q 296 736 195 736 q 423 718 366 736 q 479 676 479 699 q 464 630 479 658 q 435 602 448 602 q 417 611 434 602 q 371 629 401 620 q 309 637 342 637 q 220 614 255 637 q 184 550 184 590 q 210 475 184 503 q 293 429 235 447 q 469 343 423 389 q 515 204 515 298 q 444 50 515 111 q 269 -12 373 -12 q 157 3 210 -12 q 77 39 104 18 q 49 75 49 59 z "},"t":{"ha":475,"x_min":52,"x_max":429,"o":"m 52 668 l 52 685 q 79 726 52 726 l 149 726 l 165 872 q 210 903 168 903 l 224 903 q 265 872 265 903 l 265 726 l 382 726 q 410 685 410 726 l 410 668 q 382 627 410 627 l 265 627 l 265 195 q 340 92 265 92 q 381 95 364 92 q 400 98 397 98 q 421 73 413 98 q 429 33 429 47 q 328 -8 429 -8 q 282 -4 304 -8 q 235 13 260 0 q 191 46 210 26 q 161 101 173 66 q 149 183 149 137 l 149 627 l 79 627 q 52 668 52 627 z "},"u":{"ha":773,"x_min":104,"x_max":671,"o":"m 104 216 l 104 699 q 160 729 104 729 l 165 729 q 221 699 221 729 l 221 228 q 258 129 221 164 q 363 93 296 93 q 456 119 410 93 q 538 191 503 146 l 538 699 q 593 729 538 729 l 599 729 q 654 699 654 729 l 654 205 q 656 144 654 174 q 660 96 658 115 q 665 63 663 77 q 669 40 667 48 q 671 31 671 32 q 645 6 671 14 q 596 -1 619 -1 q 584 2 589 -1 q 573 12 578 5 q 566 24 569 19 q 559 42 562 30 q 555 59 556 54 q 551 78 553 64 q 547 96 548 92 q 446 19 503 47 q 330 -8 389 -8 q 164 52 224 -8 q 104 216 104 111 z "},"v":{"ha":673,"x_min":29,"x_max":644,"o":"m 29 705 q 89 729 29 729 l 96 729 q 151 707 144 729 l 293 264 q 342 90 312 205 l 347 90 q 389 261 380 236 l 532 707 q 589 729 539 729 l 593 729 q 644 705 644 729 q 640 686 644 699 l 416 20 q 361 -3 409 -3 l 313 -3 q 257 20 264 -3 l 33 688 q 29 705 29 700 z "},"w":{"ha":1037,"x_min":41,"x_max":993,"o":"m 41 705 q 106 729 41 729 q 161 707 156 729 l 278 262 q 313 104 288 224 q 347 264 327 188 l 463 705 q 517 729 468 729 l 526 729 q 581 705 574 729 l 697 264 q 732 106 713 202 q 764 261 754 222 l 880 707 q 937 729 886 729 q 993 705 993 729 q 989 686 993 699 l 803 20 q 747 -3 798 -3 l 705 -3 q 652 20 657 -3 l 541 460 q 519 568 529 505 q 498 461 509 503 l 385 20 q 329 -3 379 -3 l 288 -3 q 232 20 237 -3 l 49 677 q 41 705 41 700 z "},"x":{"ha":673,"x_min":28,"x_max":646,"o":"m 28 21 q 39 46 28 31 l 264 372 l 56 681 q 45 705 45 696 q 109 729 45 729 l 121 729 q 180 708 167 729 l 313 510 q 342 461 321 498 q 371 510 363 498 l 504 710 q 567 729 515 729 l 572 729 q 631 705 631 729 q 619 681 631 697 l 410 375 l 635 46 q 646 21 646 31 q 582 -3 646 -3 l 570 -3 q 510 18 524 -3 l 363 239 q 334 288 355 251 q 304 239 313 251 l 154 17 q 92 -3 140 -3 l 87 -3 q 42 3 56 -3 q 28 21 28 8 z "},"y":{"ha":668,"x_min":25,"x_max":642,"o":"m 25 705 q 85 729 25 729 l 96 729 q 151 707 142 729 l 293 330 q 338 191 319 260 l 340 191 q 386 330 380 317 l 525 707 q 582 729 532 729 l 586 729 q 642 705 642 729 q 637 686 642 699 l 281 -260 q 215 -289 269 -289 l 195 -289 q 149 -267 149 -289 q 155 -243 149 -261 l 272 39 l 29 688 q 25 705 25 700 z "},"z":{"ha":679,"x_min":52,"x_max":624,"o":"m 52 71 q 56 86 52 80 l 463 627 l 107 627 q 79 668 79 627 l 79 685 q 107 726 79 726 l 595 726 q 613 701 604 726 q 623 654 623 675 q 619 640 623 647 l 214 100 l 596 100 q 624 58 624 100 l 624 41 q 596 0 624 0 l 82 0 q 63 25 74 0 q 52 71 52 50 z "},"{":{"ha":380,"x_min":28,"x_max":339,"o":"m 28 428 l 28 447 q 62 494 28 479 q 119 555 105 514 q 134 673 134 597 l 134 905 q 145 986 134 952 q 175 1036 157 1020 q 209 1060 193 1053 q 241 1067 226 1067 l 311 1067 q 333 1057 326 1067 q 339 1026 339 1048 l 339 1021 q 333 990 339 999 q 311 981 326 981 l 281 981 q 243 960 253 981 q 233 896 233 940 l 233 652 q 125 436 233 513 q 144 424 133 433 q 172 397 156 416 q 201 356 188 379 q 224 298 214 334 q 233 224 233 263 l 233 -20 q 243 -85 233 -64 q 281 -106 254 -106 l 311 -106 q 333 -115 326 -106 q 339 -146 339 -124 l 339 -151 q 333 -182 339 -173 q 311 -192 326 -192 l 241 -192 q 209 -185 225 -192 q 175 -162 193 -178 q 145 -112 157 -146 q 134 -31 134 -78 l 134 201 q 119 319 134 277 q 62 380 105 361 q 28 428 28 395 z "},"|":{"ha":347,"x_min":134,"x_max":214,"o":"m 134 -164 l 134 1039 q 167 1069 134 1069 l 180 1069 q 214 1039 214 1069 l 214 -164 q 180 -195 214 -195 l 167 -195 q 134 -164 134 -195 z "},"}":{"ha":380,"x_min":41,"x_max":353,"o":"m 41 -146 q 48 -115 41 -124 q 69 -106 54 -106 l 100 -106 q 137 -85 127 -106 q 147 -20 147 -64 l 147 224 q 157 298 147 263 q 179 356 166 334 q 209 397 193 379 q 236 424 224 416 q 256 436 248 433 q 147 652 147 513 l 147 896 q 137 960 147 940 q 100 981 127 981 l 69 981 q 48 990 54 981 q 41 1021 41 999 l 41 1026 q 48 1057 41 1048 q 69 1067 54 1067 l 139 1067 q 172 1060 155 1067 q 207 1036 189 1053 q 236 986 224 1020 q 248 905 248 952 l 248 673 q 261 555 248 596 q 318 494 275 514 q 353 447 353 479 l 353 428 q 318 380 353 395 q 261 319 275 361 q 248 201 248 278 l 248 -31 q 236 -112 248 -78 q 206 -162 224 -146 q 172 -185 188 -178 q 139 -192 155 -192 l 69 -192 q 48 -182 54 -192 q 41 -151 41 -173 l 41 -146 z "},"~":{"ha":760,"x_min":92,"x_max":688,"o":"m 96 329 q 94 331 96 329 q 93 340 92 334 q 98 355 94 346 q 162 429 125 407 q 250 452 199 452 q 400 422 300 452 q 536 392 500 392 q 608 432 577 392 q 631 451 620 448 q 657 449 642 454 l 669 444 q 688 432 685 439 q 682 408 690 424 q 532 314 633 314 q 378 344 478 314 q 241 374 277 374 q 206 364 221 374 q 172 332 191 355 q 151 313 161 316 q 125 315 141 310 l 110 321 q 96 329 100 324 z "}," ":{"ha":333,"x_min":0,"x_max":0,"o":""},"¡":{"ha":408,"x_min":114,"x_max":268,"o":"m 114 -218 q 120 -96 114 -203 q 137 175 127 12 q 151 415 146 338 q 195 446 153 446 l 210 446 q 252 415 252 446 l 252 -218 q 196 -249 252 -249 l 168 -249 q 114 -218 114 -249 m 134 607 l 134 699 q 189 729 134 729 l 212 729 q 268 699 268 729 l 268 607 q 212 576 268 576 l 189 576 q 134 607 134 576 z "},"¢":{"ha":675,"x_min":77,"x_max":625,"o":"m 77 367 q 93 510 77 447 q 138 613 110 572 q 205 680 165 653 q 285 719 244 707 q 374 733 326 730 l 374 787 q 401 810 374 810 q 429 787 429 810 l 429 733 q 551 711 499 730 q 603 671 603 692 q 587 624 603 652 q 558 596 571 596 q 540 604 556 596 q 493 621 524 612 q 429 633 463 631 l 429 92 q 502 105 467 94 q 556 124 536 115 q 578 134 576 134 q 608 106 591 134 q 625 62 625 79 q 567 17 625 39 q 429 -8 509 -5 l 429 -82 q 401 -104 429 -104 q 374 -82 374 -104 l 374 -7 q 150 91 223 1 q 77 367 77 180 m 200 370 q 240 169 200 234 q 374 93 280 103 l 374 633 q 200 370 200 618 z "},"£":{"ha":682,"x_min":46,"x_max":619,"o":"m 46 41 l 46 64 q 58 91 46 80 q 88 111 71 102 q 123 131 106 119 q 153 165 141 142 q 165 221 165 188 l 165 471 l 89 471 q 61 513 61 471 l 61 529 q 89 571 61 571 l 165 571 l 165 692 q 450 981 165 981 q 495 979 473 981 q 539 972 517 977 q 576 958 562 968 q 590 936 590 949 q 582 896 590 923 q 559 868 574 868 q 528 874 558 868 q 472 880 498 880 q 327 837 372 880 q 282 699 282 793 l 282 571 l 486 571 q 514 529 514 571 l 514 513 q 486 471 514 471 l 282 471 l 282 346 q 276 248 282 291 q 263 181 271 205 q 243 139 256 157 q 222 114 231 121 q 203 100 214 107 l 591 100 q 619 58 619 100 l 619 41 q 591 0 619 0 l 74 0 q 46 41 46 0 z "},"¤":{"ha":741,"x_min":118,"x_max":612,"o":"m 118 237 q 134 268 118 252 l 167 301 q 119 447 119 363 q 167 593 119 528 l 134 625 q 119 656 119 640 q 127 677 119 667 l 134 685 q 155 696 142 696 q 186 679 171 696 l 220 646 q 366 694 286 694 q 510 647 445 694 l 543 681 q 571 694 557 694 q 597 682 585 694 l 600 679 q 612 656 612 667 q 597 625 612 640 l 564 591 q 612 447 612 528 q 564 301 612 365 l 597 268 q 612 239 612 253 q 599 212 612 226 l 597 211 q 572 199 585 199 q 543 214 556 199 l 510 248 q 366 201 445 201 q 221 248 284 201 l 186 212 q 157 199 172 199 q 132 211 144 199 l 129 214 q 118 237 118 224 m 252 562 q 228 537 252 562 q 204 447 204 513 q 252 333 204 380 q 366 286 299 286 q 480 333 432 286 q 528 447 528 380 q 480 562 528 513 q 366 610 432 610 q 252 562 299 610 z "},"¥":{"ha":776,"x_min":25,"x_max":751,"o":"m 25 951 q 89 975 25 975 l 104 975 q 164 954 151 975 l 392 612 l 625 956 q 688 975 637 975 l 697 975 q 751 951 751 973 q 741 926 751 945 l 511 587 l 684 587 q 711 546 711 587 l 711 534 q 684 493 711 493 l 449 493 l 449 359 l 684 359 q 711 318 711 359 l 711 307 q 684 265 711 265 l 449 265 l 449 28 q 393 -3 449 -3 l 382 -3 q 326 28 326 -3 l 326 265 l 94 265 q 66 307 66 265 l 66 318 q 94 359 66 359 l 326 359 l 326 493 l 94 493 q 66 534 66 493 l 66 546 q 94 587 66 587 l 267 587 l 36 926 q 25 951 25 941 z "},"¦":{"ha":347,"x_min":134,"x_max":214,"o":"m 134 -164 l 134 283 q 167 314 134 314 l 180 314 q 214 283 214 314 l 214 -164 q 180 -195 214 -195 l 167 -195 q 134 -164 134 -195 m 134 590 l 134 1039 q 167 1069 134 1069 l 180 1069 q 214 1039 214 1069 l 214 590 q 180 559 214 559 l 167 559 q 134 590 134 559 z "},"§":{"ha":595,"x_min":69,"x_max":526,"o":"m 69 498 q 143 659 69 594 q 90 783 90 707 q 109 873 90 834 q 160 936 128 913 q 231 969 193 958 q 313 981 270 981 q 439 963 383 981 q 494 922 494 945 q 479 876 494 904 q 450 847 463 847 q 433 856 450 847 q 387 872 416 864 q 323 880 357 880 q 238 858 267 880 q 210 798 210 835 q 227 749 210 768 q 273 719 245 730 q 334 697 300 707 q 401 672 368 688 q 463 635 435 657 q 509 572 491 613 q 526 476 526 532 q 450 315 526 374 q 505 192 505 269 q 486 100 505 140 q 435 37 467 60 q 366 3 404 14 q 285 -8 328 -8 q 159 9 214 -8 q 103 50 103 27 q 119 97 103 68 q 147 125 134 125 q 164 117 148 125 q 210 100 180 109 q 272 92 239 92 q 358 115 329 92 q 387 175 387 138 q 374 219 387 201 q 338 248 360 237 q 287 268 315 258 q 228 287 258 278 q 170 313 199 296 q 119 351 141 330 q 83 411 96 373 q 69 498 69 449 m 187 498 q 196 455 187 474 q 215 423 204 435 q 248 400 227 411 q 286 384 270 389 q 330 370 302 378 q 408 476 408 387 q 400 519 408 500 q 380 550 391 538 q 347 573 368 562 q 309 590 326 584 q 265 604 293 596 q 210 569 232 595 q 187 498 187 543 z "},"¨":{"ha":444,"x_min":65,"x_max":382,"o":"m 65 873 l 65 945 q 126 975 65 975 q 182 945 182 975 l 182 873 q 121 843 182 843 q 65 873 65 843 m 265 873 l 265 945 q 326 975 265 975 q 382 945 382 975 l 382 873 q 321 843 382 843 q 265 873 265 843 z "},"©":{"ha":1026,"x_min":14,"x_max":1013,"o":"m 14 492 q 80 742 14 628 q 262 921 147 855 q 513 986 376 986 q 707 947 615 986 q 867 843 800 909 q 973 685 934 777 q 1013 492 1013 593 q 973 297 1013 390 q 867 138 934 205 q 707 33 800 72 q 513 -7 614 -7 q 318 33 411 -7 q 159 138 226 72 q 53 297 92 205 q 14 492 14 390 m 81 492 q 115 324 81 404 q 207 186 149 244 q 345 94 265 128 q 513 60 425 60 q 681 94 601 60 q 819 186 761 128 q 912 324 878 244 q 946 492 946 404 q 888 708 946 609 q 730 863 829 806 q 513 920 630 920 q 345 886 425 920 q 207 795 265 852 q 115 659 149 739 q 81 492 81 580 m 268 485 q 538 781 268 781 q 647 764 597 781 q 696 729 696 747 q 685 700 696 718 q 667 681 674 681 q 649 690 665 681 q 604 709 633 700 q 539 718 574 718 q 391 662 438 718 q 343 485 343 606 q 390 309 343 366 q 534 253 437 253 q 605 263 572 253 q 656 284 638 274 q 677 294 675 294 q 696 276 685 294 q 707 250 707 258 q 654 211 707 231 q 534 191 602 191 q 333 262 399 191 q 268 485 268 334 z "},"ª":{"ha":443,"x_min":62,"x_max":357,"o":"m 62 715 q 70 759 62 740 q 89 791 77 779 q 119 813 100 804 q 156 827 138 823 q 200 835 174 832 q 245 839 226 838 q 292 840 264 840 l 292 873 q 273 915 292 899 q 215 930 255 930 q 162 924 187 930 q 124 910 138 917 q 109 903 110 903 q 93 916 102 903 q 83 936 83 929 q 124 966 83 951 q 212 981 164 981 q 312 952 276 981 q 349 872 349 923 l 349 718 q 351 673 349 694 q 355 643 353 653 l 357 632 q 343 620 357 624 q 319 616 330 616 q 296 665 302 616 q 179 612 248 612 q 95 639 127 612 q 62 715 62 665 m 125 720 q 182 664 125 664 q 292 710 241 664 l 292 791 q 254 791 267 791 q 217 789 240 791 q 181 783 194 787 q 153 770 168 778 q 132 750 138 763 q 125 720 125 737 z "},"«":{"ha":654,"x_min":61,"x_max":578,"o":"m 61 358 q 79 397 61 374 l 260 614 q 290 631 275 631 q 322 616 304 631 q 339 586 339 602 q 328 558 339 574 l 174 358 l 328 157 q 339 131 339 140 q 323 101 339 117 q 290 85 307 85 q 260 103 276 85 l 79 319 q 61 358 61 343 m 300 358 q 318 397 300 374 l 498 614 q 529 631 513 631 q 561 616 543 631 q 578 586 578 602 q 567 558 578 573 l 412 358 l 567 157 q 578 131 578 142 q 562 101 578 117 q 529 85 545 85 q 498 103 515 85 l 318 319 q 300 358 300 343 z "},"¬":{"ha":777,"x_min":53,"x_max":725,"o":"m 53 410 l 53 428 q 81 469 53 469 l 684 469 q 715 459 705 469 q 725 428 725 450 l 725 138 q 684 107 725 107 l 665 107 q 624 138 624 107 l 624 368 l 81 368 q 53 410 53 368 z "},"­":{"ha":444,"x_min":61,"x_max":379,"o":"m 61 361 l 61 375 q 89 416 61 416 l 351 416 q 379 375 379 416 l 379 361 q 351 319 379 319 l 89 319 q 61 361 61 319 z "},"®":{"ha":1026,"x_min":14,"x_max":1013,"o":"m 14 492 q 80 742 14 628 q 262 921 147 855 q 513 986 376 986 q 707 947 615 986 q 867 843 800 909 q 973 685 934 777 q 1013 492 1013 593 q 973 297 1013 390 q 867 138 934 205 q 707 33 800 72 q 513 -7 614 -7 q 318 33 411 -7 q 159 138 226 72 q 53 297 92 205 q 14 492 14 390 m 81 492 q 115 324 81 404 q 207 186 149 244 q 345 94 265 128 q 513 60 425 60 q 681 94 601 60 q 819 186 761 128 q 912 324 878 244 q 946 492 946 404 q 888 708 946 609 q 730 863 829 806 q 513 920 630 920 q 345 886 425 920 q 207 795 265 852 q 115 659 149 739 q 81 492 81 580 m 346 220 l 346 751 q 352 771 346 765 q 371 777 357 777 l 509 777 q 656 742 607 777 q 705 632 705 707 q 611 493 705 530 l 611 490 q 650 459 635 482 q 685 387 665 435 l 749 227 q 751 214 751 216 q 717 201 751 201 l 708 201 q 676 214 681 201 l 614 375 q 568 439 595 422 q 492 456 541 456 l 418 456 l 418 220 q 385 201 418 201 l 379 201 q 346 220 346 201 m 418 518 l 526 518 q 600 548 570 518 q 631 618 631 577 q 601 690 631 666 q 521 714 572 714 l 418 714 l 418 518 z "},"¯":{"ha":444,"x_min":37,"x_max":403,"o":"m 37 892 l 37 905 q 65 947 37 947 l 375 947 q 403 905 403 947 l 403 892 q 375 850 403 850 l 65 850 q 37 892 37 850 z "},"°":{"ha":479,"x_min":53,"x_max":421,"o":"m 106 666 q 80 693 106 666 q 53 796 53 720 q 106 927 53 873 q 236 981 160 981 q 367 926 313 981 q 421 796 421 872 q 367 666 421 720 q 236 612 313 612 q 106 666 160 612 m 155 882 q 138 864 155 882 q 121 796 121 846 q 155 710 121 746 q 236 675 189 675 q 318 711 284 675 q 353 796 353 747 q 318 882 353 846 q 236 918 283 918 q 155 882 189 918 z "},"±":{"ha":777,"x_min":53,"x_max":725,"o":"m 53 41 l 53 60 q 94 102 53 102 l 684 102 q 725 60 725 102 l 725 41 q 684 0 725 0 l 94 0 q 53 41 53 0 m 66 496 l 66 505 q 109 547 66 547 l 343 547 l 343 782 q 385 823 343 823 l 395 823 q 436 782 436 823 l 436 547 l 669 547 q 711 505 711 547 l 711 496 q 669 454 711 454 l 436 454 l 436 221 q 395 179 436 179 l 385 179 q 354 190 365 179 q 343 221 343 201 l 343 454 l 109 454 q 78 465 89 454 q 66 496 66 476 z "},"²":{"ha":444,"x_min":49,"x_max":386,"o":"m 49 449 q 52 463 49 457 l 258 722 q 303 792 294 771 q 313 839 313 812 q 286 899 313 877 q 212 921 259 921 q 154 911 180 921 q 112 890 127 901 q 93 880 97 880 q 77 896 87 880 q 66 921 66 911 q 117 962 66 944 q 211 979 168 979 q 336 943 290 979 q 382 843 382 907 q 366 767 382 801 q 298 665 351 733 l 140 471 l 371 471 q 386 447 386 471 l 386 437 q 371 414 386 414 l 65 414 q 54 425 58 414 q 49 449 49 436 z "},"³":{"ha":444,"x_min":60,"x_max":401,"o":"m 60 453 q 70 478 60 464 q 87 493 81 493 q 131 479 89 493 q 214 465 172 465 q 253 471 234 465 q 290 488 272 476 q 319 522 308 499 q 330 575 330 545 q 299 658 330 634 q 210 682 268 682 l 184 682 q 168 707 168 682 l 168 715 q 184 741 168 741 l 207 741 q 258 751 236 741 q 292 779 281 762 q 309 812 303 795 q 314 844 314 829 q 292 898 314 874 q 218 922 271 922 q 161 916 186 922 q 121 902 136 909 q 103 896 107 896 q 86 912 96 896 q 77 937 77 928 q 127 967 77 954 q 220 981 177 981 q 339 944 294 981 q 383 838 383 907 q 359 771 383 799 q 300 728 336 743 l 300 722 q 371 673 340 712 q 401 575 401 634 q 385 497 401 531 q 341 444 368 463 q 283 416 314 425 q 221 407 253 407 q 107 422 155 407 q 60 453 60 437 z "},"´":{"ha":444,"x_min":103,"x_max":336,"o":"m 103 827 q 118 864 103 836 q 183 981 132 892 q 269 1017 204 1017 q 336 999 336 1017 q 264 905 336 987 q 205 838 229 865 q 135 812 182 812 q 103 827 103 812 z "},"µ":{"ha":786,"x_min":118,"x_max":685,"o":"m 118 -258 l 118 699 q 174 729 118 729 l 179 729 q 235 699 235 729 l 235 228 q 272 129 235 164 q 376 93 309 93 q 470 119 423 93 q 551 191 517 146 l 551 699 q 607 729 551 729 l 612 729 q 668 699 668 729 l 668 205 q 670 144 668 174 q 674 96 671 115 q 679 63 677 77 q 683 40 682 48 q 685 31 685 32 q 659 6 685 14 q 610 -1 633 -1 q 597 2 603 -1 q 587 12 591 5 q 579 24 583 19 q 573 42 576 30 q 568 59 570 54 q 564 78 567 64 q 561 96 562 92 q 460 19 517 47 q 345 -8 403 -8 q 235 12 286 -8 l 235 -258 q 179 -289 235 -289 l 174 -289 q 118 -258 118 -289 z "},"¶":{"ha":715,"x_min":57,"x_max":696,"o":"m 57 657 q 150 880 57 787 q 372 972 242 972 l 668 972 q 696 939 696 972 l 696 920 q 689 894 696 902 q 668 886 683 886 l 618 886 l 618 -210 q 585 -240 618 -240 l 566 -240 q 532 -210 532 -240 l 532 886 l 424 886 l 424 -210 q 390 -240 424 -240 l 371 -240 q 338 -210 338 -240 l 338 343 q 138 447 219 357 q 57 657 57 536 z "},"·":{"ha":370,"x_min":125,"x_max":268,"o":"m 145 450 q 135 460 145 450 q 125 500 125 470 q 145 551 125 530 q 196 572 166 572 q 247 551 226 572 q 268 500 268 530 q 247 450 268 470 q 196 429 226 429 q 145 450 166 429 z "},"¸":{"ha":444,"x_min":62,"x_max":382,"o":"m 62 -232 q 89 -196 62 -196 q 135 -210 96 -196 q 204 -224 174 -224 q 283 -175 283 -224 q 269 -141 283 -154 q 238 -125 255 -129 q 206 -114 220 -121 q 192 -94 192 -106 q 218 0 192 -82 l 278 0 l 258 -68 l 264 -68 q 296 -71 279 -68 q 334 -84 313 -75 q 368 -115 355 -93 q 382 -168 382 -137 q 222 -292 382 -292 q 116 -275 169 -292 q 62 -232 62 -258 z "},"¹":{"ha":301,"x_min":57,"x_max":243,"o":"m 57 921 q 71 936 57 932 l 218 975 q 235 970 228 975 q 243 958 243 965 l 243 432 q 233 417 243 422 q 212 412 224 412 l 205 412 q 185 417 194 412 q 176 432 176 422 l 176 901 l 74 879 q 61 893 66 879 q 57 921 57 907 z "},"º":{"ha":468,"x_min":77,"x_max":392,"o":"m 77 794 q 118 932 77 884 q 236 981 159 981 q 352 932 311 981 q 392 794 392 884 q 352 659 392 705 q 236 612 312 612 q 117 659 158 612 q 77 794 77 705 m 136 796 q 160 695 136 728 q 233 663 184 663 q 308 695 284 663 q 332 796 332 728 q 308 898 332 865 q 233 930 284 930 q 160 898 183 930 q 136 796 136 866 z "},"»":{"ha":654,"x_min":75,"x_max":591,"o":"m 75 131 q 86 157 75 142 l 240 358 l 86 558 q 75 586 75 573 q 92 616 75 602 q 123 631 109 631 q 154 614 139 631 l 335 397 q 353 358 353 375 q 335 319 353 342 l 154 103 q 123 85 138 85 q 91 101 107 85 q 75 131 75 117 m 314 131 q 325 157 314 142 l 479 358 l 325 558 q 314 586 314 573 q 331 616 314 602 q 363 631 349 631 q 393 614 378 631 l 574 397 q 591 358 591 375 q 574 319 591 342 l 393 103 q 363 85 377 85 q 330 101 347 85 q 314 131 314 117 z "},"¼":{"ha":932,"x_min":57,"x_max":872,"o":"m 57 921 q 71 936 57 932 l 218 975 q 235 970 228 975 q 243 958 243 965 l 243 432 q 233 417 243 422 q 212 412 224 412 l 205 412 q 185 417 194 412 q 176 432 176 422 l 176 901 l 74 879 q 61 893 66 879 q 57 921 57 907 m 125 7 q 131 21 125 13 l 694 953 q 736 977 708 977 l 754 977 q 774 966 774 977 q 768 953 774 964 l 204 21 q 163 -3 191 -3 l 144 -3 q 125 7 125 -3 m 473 163 q 475 172 473 170 l 739 550 q 766 561 748 561 l 779 561 q 803 543 803 561 l 803 179 l 857 179 q 872 155 872 179 l 872 146 q 857 121 872 121 l 803 121 l 803 16 q 779 -3 803 -3 l 761 -3 q 736 16 736 -3 l 736 121 l 493 121 q 480 136 487 121 q 473 163 473 151 m 553 179 l 736 179 l 736 361 l 739 447 l 734 450 l 553 179 z "},"½":{"ha":1036,"x_min":57,"x_max":957,"o":"m 57 921 q 71 936 57 932 l 218 975 q 235 970 228 975 q 243 958 243 965 l 243 432 q 233 417 243 422 q 212 412 224 412 l 205 412 q 185 417 194 412 q 176 432 176 422 l 176 901 l 74 879 q 61 893 66 879 q 57 921 57 907 m 125 7 q 131 21 125 13 l 694 953 q 736 977 708 977 l 754 977 q 774 966 774 977 q 768 953 774 964 l 204 21 q 163 -3 191 -3 l 144 -3 q 125 7 125 -3 m 619 35 q 623 49 619 42 l 817 293 q 872 374 861 351 q 884 425 884 397 q 857 485 884 463 q 783 507 830 507 q 725 497 751 507 q 683 477 699 487 q 664 467 668 467 q 648 482 658 467 q 637 507 637 498 q 688 548 637 530 q 782 566 739 566 q 907 529 861 566 q 953 429 953 493 q 940 358 953 389 q 882 267 928 328 l 711 57 l 942 57 q 957 33 957 57 l 957 24 q 942 0 957 0 l 636 0 q 624 11 629 0 q 619 35 619 22 z "},"¾":{"ha":1025,"x_min":54,"x_max":968,"o":"m 54 453 q 65 478 54 464 q 82 493 75 493 q 125 479 83 493 q 208 465 167 465 q 248 471 229 465 q 284 488 267 476 q 314 522 302 499 q 325 575 325 545 q 294 658 325 634 q 204 682 262 682 l 179 682 q 163 707 163 682 l 163 715 q 179 741 163 741 l 201 741 q 253 751 231 741 q 287 779 275 762 q 303 812 298 795 q 309 844 309 829 q 287 898 309 874 q 212 922 264 922 q 155 916 180 922 q 115 902 130 909 q 97 896 101 896 q 80 912 90 896 q 71 937 71 928 q 121 967 71 954 q 214 981 171 981 q 333 944 288 981 q 378 838 378 907 q 354 771 378 799 q 294 728 330 743 l 294 722 q 366 673 335 712 q 396 575 396 634 q 379 497 396 531 q 335 444 363 463 q 277 416 308 425 q 215 407 247 407 q 102 422 149 407 q 54 453 54 437 m 215 7 q 221 21 215 13 l 785 953 q 827 977 798 977 l 844 977 q 864 966 864 977 q 859 953 864 964 l 294 21 q 253 -3 281 -3 l 235 -3 q 215 7 215 -3 m 570 163 q 571 172 570 170 l 835 550 q 863 561 844 561 l 875 561 q 899 543 899 561 l 899 179 l 953 179 q 968 155 968 179 l 968 146 q 953 121 968 121 l 899 121 l 899 16 q 875 -3 899 -3 l 857 -3 q 832 16 832 -3 l 832 121 l 589 121 q 576 136 583 121 q 570 163 570 151 m 648 179 l 832 179 l 832 361 l 835 447 l 831 450 l 648 179 z "},"¿":{"ha":590,"x_min":26,"x_max":550,"o":"m 26 -21 q 53 80 26 31 q 117 169 79 129 q 195 247 156 208 q 265 329 234 285 q 301 418 296 374 q 313 439 303 432 q 347 446 323 446 l 368 446 q 410 414 410 446 q 378 308 410 366 q 290 193 347 250 q 238 140 254 157 q 199 95 222 123 q 167 42 176 66 q 158 -7 158 18 q 334 -151 158 -151 q 410 -140 372 -151 q 473 -116 448 -128 q 505 -104 498 -104 q 533 -132 515 -104 q 550 -175 550 -160 q 472 -231 550 -208 q 311 -254 395 -254 q 102 -187 178 -254 q 26 -21 26 -119 m 296 607 l 296 699 q 351 729 296 729 l 375 729 q 431 699 431 729 l 431 607 q 375 576 431 576 l 351 576 q 296 607 296 576 z "},"À":{"ha":851,"x_min":17,"x_max":835,"o":"m 17 21 q 21 40 17 28 l 350 953 q 406 975 357 975 l 446 975 q 501 953 494 975 l 831 39 q 835 21 835 28 q 775 -3 835 -3 l 764 -3 q 708 20 715 -3 l 627 248 l 218 248 l 139 20 q 83 -3 132 -3 l 77 -3 q 17 21 17 -3 m 257 353 l 589 353 l 443 766 q 427 847 435 789 l 424 847 q 403 766 413 795 l 257 353 m 262 1244 q 329 1263 262 1263 q 415 1226 393 1263 q 482 1108 468 1134 q 496 1072 496 1082 q 464 1059 496 1059 q 393 1083 416 1059 q 273 1221 279 1214 q 262 1244 262 1236 z "},"Á":{"ha":851,"x_min":17,"x_max":835,"o":"m 17 21 q 21 40 17 28 l 350 953 q 406 975 357 975 l 446 975 q 501 953 494 975 l 831 39 q 835 21 835 28 q 775 -3 835 -3 l 764 -3 q 708 20 715 -3 l 627 248 l 218 248 l 139 20 q 83 -3 132 -3 l 77 -3 q 17 21 17 -3 m 257 353 l 589 353 l 443 766 q 427 847 435 789 l 424 847 q 403 766 413 795 l 257 353 m 371 1072 q 385 1108 371 1082 q 452 1226 399 1134 q 538 1263 473 1263 q 604 1244 604 1263 q 532 1151 604 1232 q 473 1083 497 1110 q 403 1059 451 1059 q 371 1072 371 1059 z "},"Â":{"ha":851,"x_min":17,"x_max":835,"o":"m 17 21 q 21 40 17 28 l 350 953 q 406 975 357 975 l 446 975 q 501 953 494 975 l 831 39 q 835 21 835 28 q 775 -3 835 -3 l 764 -3 q 708 20 715 -3 l 627 248 l 218 248 l 139 20 q 83 -3 132 -3 l 77 -3 q 17 21 17 -3 m 257 353 l 589 353 l 443 766 q 427 847 435 789 l 424 847 q 403 766 413 795 l 257 353 m 258 1065 q 267 1090 258 1076 l 345 1213 q 408 1243 364 1243 l 443 1243 q 507 1213 488 1243 l 586 1090 q 595 1067 595 1077 q 561 1046 595 1046 l 558 1046 q 513 1064 533 1046 l 425 1166 l 340 1064 q 293 1046 320 1046 l 290 1046 q 258 1065 258 1046 z "},"Ã":{"ha":851,"x_min":17,"x_max":835,"o":"m 17 21 q 21 40 17 28 l 350 953 q 406 975 357 975 l 446 975 q 501 953 494 975 l 831 39 q 835 21 835 28 q 775 -3 835 -3 l 764 -3 q 708 20 715 -3 l 627 248 l 218 248 l 139 20 q 83 -3 132 -3 l 77 -3 q 17 21 17 -3 m 189 1082 q 187 1084 189 1082 q 186 1092 186 1086 q 191 1108 187 1098 q 244 1182 213 1160 q 318 1204 275 1204 q 445 1175 361 1204 q 559 1145 529 1145 q 592 1154 578 1145 q 621 1185 606 1162 q 663 1202 638 1212 l 673 1197 q 689 1184 687 1192 q 684 1161 691 1177 q 631 1089 661 1111 q 557 1067 600 1067 q 426 1097 511 1067 q 311 1126 341 1126 q 281 1117 294 1126 q 253 1084 268 1107 q 235 1066 243 1069 q 214 1068 227 1063 l 200 1074 q 189 1082 192 1077 m 257 353 l 589 353 l 443 766 q 427 847 435 789 l 424 847 q 403 766 413 795 l 257 353 z "},"Ä":{"ha":851,"x_min":17,"x_max":835,"o":"m 17 21 q 21 40 17 28 l 350 953 q 406 975 357 975 l 446 975 q 501 953 494 975 l 831 39 q 835 21 835 28 q 775 -3 835 -3 l 764 -3 q 708 20 715 -3 l 627 248 l 218 248 l 139 20 q 83 -3 132 -3 l 77 -3 q 17 21 17 -3 m 257 353 l 589 353 l 443 766 q 427 847 435 789 l 424 847 q 403 766 413 795 l 257 353 m 268 1120 l 268 1190 q 329 1221 268 1221 q 385 1190 385 1221 l 385 1120 q 323 1089 385 1089 q 268 1120 268 1089 m 468 1120 l 468 1190 q 529 1221 468 1221 q 585 1190 585 1221 l 585 1120 q 524 1089 585 1089 q 468 1120 468 1089 z "},"Å":{"ha":851,"x_min":17,"x_max":835,"o":"m 17 21 q 21 40 17 28 l 350 953 q 406 975 357 975 l 446 975 q 501 953 494 975 l 831 39 q 835 21 835 28 q 775 -3 835 -3 l 764 -3 q 708 20 715 -3 l 627 248 l 218 248 l 139 20 q 83 -3 132 -3 l 77 -3 q 17 21 17 -3 m 257 353 l 589 353 l 443 766 q 427 847 435 789 l 424 847 q 403 766 413 795 l 257 353 m 344 1063 q 327 1080 344 1063 q 310 1146 310 1097 q 344 1230 310 1195 q 427 1264 378 1264 q 510 1230 475 1264 q 545 1146 545 1195 q 510 1063 545 1097 q 427 1029 475 1029 q 344 1063 378 1029 m 378 1195 q 368 1185 378 1195 q 358 1146 358 1175 q 378 1097 358 1117 q 427 1078 397 1078 q 476 1097 456 1078 q 496 1146 496 1117 q 476 1195 496 1175 q 427 1215 456 1215 q 378 1195 397 1215 z "},"Æ":{"ha":1270,"x_min":-16,"x_max":1143,"o":"m -16 21 q -9 43 -16 31 l 436 935 q 496 972 454 972 l 1114 972 q 1141 930 1141 972 l 1141 908 q 1114 867 1141 867 l 611 867 l 681 550 l 1072 550 q 1100 509 1100 550 l 1100 486 q 1072 444 1100 444 l 703 444 l 777 106 l 1116 106 q 1143 64 1143 106 l 1143 41 q 1116 0 1143 0 l 717 0 q 667 40 675 0 l 623 248 l 212 248 l 102 20 q 46 -3 90 -3 l 39 -3 q -16 21 -16 -3 m 267 351 l 599 351 l 510 766 l 504 847 l 501 847 l 472 766 l 267 351 z "},"Ç":{"ha":859,"x_min":79,"x_max":814,"o":"m 79 486 q 529 981 79 981 q 711 952 629 981 q 794 895 794 924 q 777 845 794 876 q 747 814 760 814 q 725 823 743 814 q 684 844 707 833 q 619 865 661 856 q 532 875 577 875 q 284 782 363 875 q 205 485 205 688 q 284 191 205 286 q 526 97 362 97 q 621 108 575 97 q 693 132 667 119 q 740 156 719 145 q 765 167 760 167 q 796 136 778 167 q 814 92 814 106 q 778 50 814 73 q 674 10 742 27 q 532 -8 607 -7 l 515 -68 l 521 -68 q 553 -71 536 -68 q 591 -84 570 -75 q 625 -115 612 -93 q 639 -168 639 -137 q 479 -292 639 -292 q 373 -275 426 -292 q 319 -232 319 -258 q 346 -196 319 -196 q 392 -210 353 -196 q 461 -224 431 -224 q 541 -175 541 -224 q 526 -141 541 -154 q 495 -125 512 -129 q 463 -114 477 -121 q 449 -94 449 -106 q 472 -7 449 -79 q 176 127 272 7 q 79 486 79 248 z "},"È":{"ha":758,"x_min":135,"x_max":690,"o":"m 135 41 l 135 930 q 145 962 135 952 q 176 972 155 972 l 661 972 q 689 930 689 972 l 689 908 q 661 867 689 867 l 257 867 l 257 550 l 619 550 q 647 509 647 550 l 647 486 q 619 444 647 444 l 257 444 l 257 106 l 663 106 q 690 64 690 106 l 690 41 q 663 0 690 0 l 176 0 q 145 10 155 0 q 135 41 135 20 m 248 1244 q 314 1263 248 1263 q 400 1226 378 1263 q 467 1108 453 1134 q 481 1072 481 1082 q 449 1059 481 1059 q 378 1083 400 1059 q 326 1142 357 1106 q 260 1219 272 1204 q 248 1244 248 1235 z "},"É":{"ha":758,"x_min":135,"x_max":690,"o":"m 135 41 l 135 930 q 145 962 135 952 q 176 972 155 972 l 661 972 q 689 930 689 972 l 689 908 q 661 867 689 867 l 257 867 l 257 550 l 619 550 q 647 509 647 550 l 647 486 q 619 444 647 444 l 257 444 l 257 106 l 663 106 q 690 64 690 106 l 690 41 q 663 0 690 0 l 176 0 q 145 10 155 0 q 135 41 135 20 m 355 1072 q 369 1108 355 1082 q 436 1226 383 1134 q 522 1263 458 1263 q 589 1244 589 1263 q 577 1220 589 1235 q 510 1142 566 1205 q 458 1083 479 1106 q 387 1059 436 1059 q 355 1072 355 1059 z "},"Ê":{"ha":758,"x_min":135,"x_max":690,"o":"m 135 41 l 135 930 q 145 962 135 952 q 176 972 155 972 l 661 972 q 689 930 689 972 l 689 908 q 661 867 689 867 l 257 867 l 257 550 l 619 550 q 647 509 647 550 l 647 486 q 619 444 647 444 l 257 444 l 257 106 l 663 106 q 690 64 690 106 l 690 41 q 663 0 690 0 l 176 0 q 145 10 155 0 q 135 41 135 20 m 243 1065 q 252 1090 243 1075 l 329 1213 q 393 1243 349 1243 l 428 1243 q 492 1213 472 1243 l 571 1090 q 579 1067 579 1078 q 546 1046 579 1046 l 543 1046 q 497 1064 517 1046 l 410 1166 l 325 1064 q 278 1046 304 1046 l 275 1046 q 243 1065 243 1046 z "},"Ë":{"ha":758,"x_min":135,"x_max":690,"o":"m 135 41 l 135 930 q 145 962 135 952 q 176 972 155 972 l 661 972 q 689 930 689 972 l 689 908 q 661 867 689 867 l 257 867 l 257 550 l 619 550 q 647 509 647 550 l 647 486 q 619 444 647 444 l 257 444 l 257 106 l 663 106 q 690 64 690 106 l 690 41 q 663 0 690 0 l 176 0 q 145 10 155 0 q 135 41 135 20 m 253 1120 l 253 1190 q 314 1221 253 1221 q 370 1190 370 1221 l 370 1120 q 309 1089 370 1089 q 253 1120 253 1089 m 453 1120 l 453 1190 q 514 1221 453 1221 q 570 1190 570 1221 l 570 1120 q 509 1089 570 1089 q 453 1120 453 1089 z "},"Ì":{"ha":391,"x_min":32,"x_max":265,"o":"m 32 1244 q 98 1263 32 1263 q 184 1226 163 1263 q 251 1108 237 1134 q 265 1072 265 1082 q 233 1059 265 1059 q 163 1083 185 1059 q 43 1221 48 1214 q 32 1244 32 1236 m 135 28 l 135 945 q 191 975 135 975 l 201 975 q 257 945 257 975 l 257 28 q 201 -3 257 -3 l 191 -3 q 135 28 135 -3 z "},"Í":{"ha":391,"x_min":135,"x_max":374,"o":"m 135 28 l 135 945 q 191 975 135 975 l 201 975 q 257 945 257 975 l 257 28 q 201 -3 257 -3 l 191 -3 q 135 28 135 -3 m 140 1072 q 154 1108 140 1082 q 221 1226 168 1134 q 307 1263 243 1263 q 374 1244 374 1263 q 302 1151 374 1232 q 243 1083 267 1110 q 172 1059 220 1059 q 140 1072 140 1059 z "},"Î":{"ha":391,"x_min":28,"x_max":364,"o":"m 28 1065 q 36 1090 28 1076 l 114 1213 q 178 1243 134 1243 l 212 1243 q 277 1213 257 1243 l 355 1090 q 364 1067 364 1077 q 330 1046 364 1046 l 328 1046 q 282 1064 302 1046 l 195 1166 l 110 1064 q 62 1046 90 1046 l 60 1046 q 28 1065 28 1046 m 135 28 l 135 945 q 191 975 135 975 l 201 975 q 257 945 257 975 l 257 28 q 201 -3 257 -3 l 191 -3 q 135 28 135 -3 z "},"Ï":{"ha":391,"x_min":37,"x_max":354,"o":"m 37 1120 l 37 1190 q 98 1221 37 1221 q 154 1190 154 1221 l 154 1120 q 93 1089 154 1089 q 37 1120 37 1089 m 135 28 l 135 945 q 191 975 135 975 l 201 975 q 257 945 257 975 l 257 28 q 201 -3 257 -3 l 191 -3 q 135 28 135 -3 m 237 1120 l 237 1190 q 298 1221 237 1221 q 354 1190 354 1221 l 354 1120 q 293 1089 354 1089 q 237 1120 237 1089 z "},"Ð":{"ha":966,"x_min":0,"x_max":890,"o":"m 0 486 l 0 509 q 28 550 0 550 l 118 550 l 118 930 q 160 972 118 972 l 458 972 q 595 957 532 972 q 713 904 659 941 q 807 813 768 868 q 868 674 846 758 q 890 486 890 591 q 868 297 890 380 q 807 159 846 214 q 713 67 768 104 q 595 16 658 31 q 458 0 532 0 l 160 0 q 128 10 138 0 q 118 41 118 20 l 118 444 l 28 444 q 0 486 0 444 m 240 106 l 449 106 q 572 127 517 106 q 671 191 627 148 q 739 310 715 235 q 764 486 764 385 q 739 662 764 587 q 671 781 715 737 q 572 846 627 825 q 449 867 516 867 l 240 867 l 240 550 l 393 550 q 421 509 421 550 l 421 486 q 393 444 421 444 l 240 444 l 240 106 z "},"Ñ":{"ha":998,"x_min":125,"x_max":873,"o":"m 125 28 l 125 945 q 180 975 125 975 l 210 975 q 245 969 233 975 q 268 949 258 964 l 711 279 l 753 201 l 753 945 q 808 975 753 975 l 818 975 q 873 945 873 975 l 873 28 q 818 -3 873 -3 l 790 -3 q 742 17 755 -3 l 283 708 l 245 779 l 245 28 q 191 -3 245 -3 l 180 -3 q 125 28 125 -3 m 262 1082 q 261 1084 262 1082 q 260 1092 259 1086 q 264 1108 260 1098 q 392 1204 305 1204 q 519 1175 435 1204 q 633 1145 603 1145 q 666 1154 652 1145 q 694 1185 680 1162 q 714 1204 705 1200 q 736 1202 724 1207 l 747 1197 q 763 1184 761 1192 q 757 1161 764 1177 q 704 1088 734 1110 q 631 1067 673 1067 q 500 1097 585 1067 q 385 1126 414 1126 q 354 1117 367 1126 q 326 1084 341 1107 q 309 1066 316 1069 q 288 1068 301 1063 l 273 1074 q 262 1082 265 1077 z "},"Ò":{"ha":1015,"x_min":79,"x_max":936,"o":"m 79 489 q 189 856 79 732 q 507 981 298 981 q 827 856 718 981 q 936 489 936 732 q 826 119 936 245 q 507 -8 717 -8 q 189 119 298 -8 q 79 489 79 245 m 205 489 q 283 197 205 298 q 507 97 360 97 q 732 197 654 97 q 810 489 810 298 q 732 777 810 680 q 507 875 655 875 q 282 777 359 875 q 205 489 205 680 m 345 1244 q 411 1263 345 1263 q 497 1226 475 1263 q 564 1108 550 1134 q 578 1072 578 1082 q 546 1059 578 1059 q 475 1083 497 1059 q 423 1142 454 1106 q 357 1219 369 1204 q 345 1244 345 1235 z "},"Ó":{"ha":1015,"x_min":79,"x_max":936,"o":"m 79 489 q 189 856 79 732 q 507 981 298 981 q 827 856 718 981 q 936 489 936 732 q 826 119 936 245 q 507 -8 717 -8 q 189 119 298 -8 q 79 489 79 245 m 205 489 q 283 197 205 298 q 507 97 360 97 q 732 197 654 97 q 810 489 810 298 q 732 777 810 680 q 507 875 655 875 q 282 777 359 875 q 205 489 205 680 m 453 1072 q 468 1110 453 1082 q 533 1226 482 1138 q 619 1263 555 1263 q 686 1244 686 1263 q 614 1151 686 1232 q 555 1083 579 1110 q 485 1059 533 1059 q 453 1072 453 1059 z "},"Ô":{"ha":1015,"x_min":79,"x_max":936,"o":"m 79 489 q 189 856 79 732 q 507 981 298 981 q 827 856 718 981 q 936 489 936 732 q 826 119 936 245 q 507 -8 717 -8 q 189 119 298 -8 q 79 489 79 245 m 205 489 q 283 197 205 298 q 507 97 360 97 q 732 197 654 97 q 810 489 810 298 q 732 777 810 680 q 507 875 655 875 q 282 777 359 875 q 205 489 205 680 m 340 1065 q 349 1090 340 1076 l 427 1213 q 490 1243 446 1243 l 525 1243 q 589 1213 569 1243 l 668 1090 q 676 1067 676 1078 q 643 1046 676 1046 l 640 1046 q 595 1064 615 1046 l 507 1166 l 422 1064 q 375 1046 402 1046 l 372 1046 q 340 1065 340 1046 z "},"Õ":{"ha":1015,"x_min":79,"x_max":936,"o":"m 79 489 q 189 856 79 732 q 507 981 298 981 q 827 856 718 981 q 936 489 936 732 q 826 119 936 245 q 507 -8 717 -8 q 189 119 298 -8 q 79 489 79 245 m 205 489 q 283 197 205 298 q 507 97 360 97 q 732 197 654 97 q 810 489 810 298 q 732 777 810 680 q 507 875 655 875 q 282 777 359 875 q 205 489 205 680 m 282 1074 q 268 1086 270 1078 q 272 1108 267 1095 q 400 1204 313 1204 q 527 1175 444 1204 q 642 1145 611 1145 q 674 1154 661 1145 q 703 1185 688 1162 q 745 1202 720 1212 l 755 1197 q 771 1184 769 1192 q 765 1161 772 1177 q 712 1088 743 1110 q 639 1067 682 1067 q 508 1097 593 1067 q 393 1126 423 1126 q 363 1117 376 1126 q 335 1084 350 1107 q 317 1066 325 1069 q 296 1068 309 1063 l 282 1074 z "},"Ö":{"ha":1015,"x_min":79,"x_max":936,"o":"m 79 489 q 189 856 79 732 q 507 981 298 981 q 827 856 718 981 q 936 489 936 732 q 826 119 936 245 q 507 -8 717 -8 q 189 119 298 -8 q 79 489 79 245 m 205 489 q 283 197 205 298 q 507 97 360 97 q 732 197 654 97 q 810 489 810 298 q 732 777 810 680 q 507 875 655 875 q 282 777 359 875 q 205 489 205 680 m 350 1120 l 350 1190 q 411 1221 350 1221 q 467 1190 467 1221 l 467 1120 q 406 1089 467 1089 q 350 1120 350 1089 m 550 1120 l 550 1190 q 611 1221 550 1221 q 667 1190 667 1221 l 667 1120 q 606 1089 667 1089 q 550 1120 550 1089 z "},"×":{"ha":777,"x_min":75,"x_max":701,"o":"m 86 39 q 75 58 75 50 q 86 78 75 67 l 323 317 l 86 554 q 75 574 75 565 q 86 593 75 582 l 113 621 q 132 631 123 631 q 151 621 141 631 l 389 382 l 627 621 q 646 631 637 631 q 665 621 655 631 l 692 593 q 701 574 701 583 q 692 554 701 564 l 454 317 l 692 78 q 701 58 701 68 q 692 39 701 48 l 665 11 q 646 0 654 0 q 627 11 637 0 l 389 252 l 151 11 q 132 0 140 0 q 113 11 123 0 l 86 39 z "},"Ø":{"ha":1015,"x_min":47,"x_max":936,"o":"m 47 31 q 56 50 47 40 l 157 161 q 79 489 79 285 q 189 856 79 732 q 507 981 298 981 q 803 879 693 981 l 879 964 q 899 975 888 975 q 918 965 907 975 q 929 947 929 956 q 921 928 929 938 l 840 839 q 936 489 936 713 q 826 119 936 245 q 507 -8 717 -8 q 191 117 298 -8 l 97 14 q 78 1 87 1 q 58 12 68 1 q 47 31 47 22 m 205 489 q 245 260 205 352 l 721 789 q 507 875 645 875 q 282 777 359 875 q 205 489 205 680 m 273 210 q 507 97 349 97 q 732 197 654 97 q 810 489 810 298 q 754 745 810 648 l 273 210 z "},"Ù":{"ha":989,"x_min":115,"x_max":873,"o":"m 115 311 l 115 945 q 171 975 115 975 l 182 975 q 237 945 237 975 l 237 307 q 310 156 237 215 q 494 97 383 97 q 679 156 606 97 q 751 307 751 216 l 751 945 q 807 975 751 975 l 818 975 q 873 945 873 975 l 873 311 q 775 76 873 160 q 494 -8 676 -8 q 214 76 312 -8 q 115 311 115 160 m 330 1244 q 397 1263 330 1263 q 484 1226 462 1263 q 549 1110 534 1138 q 564 1072 564 1082 q 532 1059 564 1059 q 461 1083 484 1059 q 341 1221 347 1214 q 330 1244 330 1236 z "},"Ú":{"ha":989,"x_min":115,"x_max":873,"o":"m 115 311 l 115 945 q 171 975 115 975 l 182 975 q 237 945 237 975 l 237 307 q 310 156 237 215 q 494 97 383 97 q 679 156 606 97 q 751 307 751 216 l 751 945 q 807 975 751 975 l 818 975 q 873 945 873 975 l 873 311 q 775 76 873 160 q 494 -8 676 -8 q 214 76 312 -8 q 115 311 115 160 m 439 1072 q 453 1108 439 1082 q 519 1226 467 1134 q 606 1263 541 1263 q 672 1244 672 1263 q 661 1220 672 1235 q 593 1142 649 1205 q 542 1083 562 1106 q 471 1059 519 1059 q 439 1072 439 1059 z "},"Û":{"ha":989,"x_min":115,"x_max":873,"o":"m 115 311 l 115 945 q 171 975 115 975 l 182 975 q 237 945 237 975 l 237 307 q 310 156 237 215 q 494 97 383 97 q 679 156 606 97 q 751 307 751 216 l 751 945 q 807 975 751 975 l 818 975 q 873 945 873 975 l 873 311 q 775 76 873 160 q 494 -8 676 -8 q 214 76 312 -8 q 115 311 115 160 m 326 1065 q 335 1090 326 1075 l 412 1213 q 476 1243 432 1243 l 511 1243 q 575 1213 555 1243 l 654 1090 q 663 1067 663 1078 q 629 1046 663 1046 l 627 1046 q 581 1064 601 1046 l 493 1166 l 408 1064 q 361 1046 388 1046 l 358 1046 q 326 1065 326 1046 z "},"Ü":{"ha":989,"x_min":115,"x_max":873,"o":"m 115 311 l 115 945 q 171 975 115 975 l 182 975 q 237 945 237 975 l 237 307 q 310 156 237 215 q 494 97 383 97 q 679 156 606 97 q 751 307 751 216 l 751 945 q 807 975 751 975 l 818 975 q 873 945 873 975 l 873 311 q 775 76 873 160 q 494 -8 676 -8 q 214 76 312 -8 q 115 311 115 160 m 336 1120 l 336 1190 q 397 1221 336 1221 q 453 1190 453 1221 l 453 1120 q 392 1089 453 1089 q 336 1120 336 1089 m 536 1120 l 536 1190 q 597 1221 536 1221 q 653 1190 653 1221 l 653 1120 q 591 1089 653 1089 q 536 1120 536 1089 z "},"Ý":{"ha":776,"x_min":25,"x_max":751,"o":"m 25 951 q 89 975 25 975 l 104 975 q 164 954 151 975 l 392 612 l 625 956 q 688 975 637 975 l 697 975 q 751 951 751 973 q 741 926 751 945 l 449 494 l 449 28 q 393 -3 449 -3 l 382 -3 q 326 28 326 -3 l 326 498 l 36 926 q 25 951 25 941 m 334 1072 q 348 1110 334 1082 q 414 1226 363 1138 q 500 1263 435 1263 q 567 1244 567 1263 q 495 1151 567 1232 q 436 1083 460 1110 q 366 1059 414 1059 q 334 1072 334 1059 z "},"Þ":{"ha":787,"x_min":118,"x_max":751,"o":"m 118 28 l 118 945 q 174 975 118 975 l 184 975 q 240 945 240 975 l 240 803 l 441 803 q 520 798 482 803 q 602 774 557 792 q 677 728 646 757 q 730 648 709 699 q 751 530 751 597 q 739 435 751 478 q 706 362 726 391 q 657 311 686 334 q 602 277 629 289 q 546 257 575 264 q 495 247 516 249 q 456 244 474 244 l 240 244 l 240 28 q 184 -3 240 -3 l 174 -3 q 118 28 118 -3 m 240 350 l 457 350 q 508 357 482 350 q 561 383 533 365 q 607 439 589 401 q 625 530 625 477 q 613 600 625 570 q 583 649 602 631 q 538 678 564 667 q 489 693 513 689 q 437 697 465 697 l 240 697 l 240 350 z "},"ß":{"ha":769,"x_min":125,"x_max":714,"o":"m 125 28 l 125 724 q 200 909 125 838 q 399 981 275 981 q 506 968 458 981 q 592 929 554 956 q 652 856 631 903 q 673 745 673 808 q 634 624 673 683 q 532 538 594 564 l 532 533 q 666 445 618 513 q 714 286 714 378 q 629 76 714 152 q 415 0 545 0 l 371 0 q 343 41 343 0 l 343 58 q 371 100 343 100 l 416 100 q 542 150 492 100 q 591 286 591 200 q 542 422 591 372 q 416 472 492 472 l 371 472 q 343 514 343 472 l 343 530 q 371 572 343 572 l 385 572 q 500 620 450 572 q 550 733 550 667 q 537 806 550 776 q 500 852 524 836 q 452 874 477 867 q 396 880 427 880 q 283 838 325 880 q 241 724 241 796 l 241 28 q 186 -3 241 -3 l 180 -3 q 125 28 125 -3 z "},"à":{"ha":757,"x_min":68,"x_max":663,"o":"m 68 200 q 77 270 68 238 q 101 326 86 302 q 140 369 116 350 q 190 401 165 389 q 250 424 215 414 q 315 438 285 433 q 386 447 345 444 q 457 451 426 450 q 529 453 488 452 l 529 518 q 493 603 529 570 q 376 635 457 635 q 270 620 321 635 q 191 591 220 606 q 160 576 163 576 q 129 604 146 576 q 111 646 111 632 q 146 684 111 664 q 244 720 182 705 q 372 734 307 734 q 574 677 502 734 q 646 517 646 620 l 646 205 q 647 144 646 174 q 651 96 649 115 q 656 63 654 77 q 661 40 659 48 q 663 31 663 32 q 636 6 663 14 q 587 -1 610 -1 q 575 2 581 -1 q 565 12 569 5 q 557 24 560 18 q 551 42 554 31 q 547 59 548 53 q 543 79 545 66 q 539 96 540 92 q 306 -8 445 -8 q 134 44 199 -8 q 68 200 68 97 m 193 207 q 223 122 193 151 q 311 93 253 93 q 429 118 380 93 q 529 189 477 143 l 529 353 q 328 338 388 351 q 193 207 193 310 m 215 999 q 282 1017 215 1017 q 368 981 347 1017 q 435 862 421 888 q 449 827 449 836 q 416 812 449 812 q 346 838 369 812 q 226 976 231 968 q 215 999 215 991 z "},"á":{"ha":757,"x_min":68,"x_max":663,"o":"m 68 200 q 77 270 68 238 q 101 326 86 302 q 140 369 116 350 q 190 401 165 389 q 250 424 215 414 q 315 438 285 433 q 386 447 345 444 q 457 451 426 450 q 529 453 488 452 l 529 518 q 493 603 529 570 q 376 635 457 635 q 270 620 321 635 q 191 591 220 606 q 160 576 163 576 q 129 604 146 576 q 111 646 111 632 q 146 684 111 664 q 244 720 182 705 q 372 734 307 734 q 574 677 502 734 q 646 517 646 620 l 646 205 q 647 144 646 174 q 651 96 649 115 q 656 63 654 77 q 661 40 659 48 q 663 31 663 32 q 636 6 663 14 q 587 -1 610 -1 q 575 2 581 -1 q 565 12 569 5 q 557 24 560 18 q 551 42 554 31 q 547 59 548 53 q 543 79 545 66 q 539 96 540 92 q 306 -8 445 -8 q 134 44 199 -8 q 68 200 68 97 m 193 207 q 223 122 193 151 q 311 93 253 93 q 429 118 380 93 q 529 189 477 143 l 529 353 q 328 338 388 351 q 193 207 193 310 m 323 827 q 337 862 323 836 q 404 981 351 888 q 490 1017 425 1017 q 557 999 557 1017 q 545 975 557 989 q 478 897 534 960 q 427 838 447 861 q 355 812 404 812 q 323 827 323 812 z "},"â":{"ha":757,"x_min":68,"x_max":663,"o":"m 68 200 q 77 270 68 238 q 101 326 86 302 q 140 369 116 350 q 190 401 165 389 q 250 424 215 414 q 315 438 285 433 q 386 447 345 444 q 457 451 426 450 q 529 453 488 452 l 529 518 q 493 603 529 570 q 376 635 457 635 q 270 620 321 635 q 191 591 220 606 q 160 576 163 576 q 129 604 146 576 q 111 646 111 632 q 146 684 111 664 q 244 720 182 705 q 372 734 307 734 q 574 677 502 734 q 646 517 646 620 l 646 205 q 647 144 646 174 q 651 96 649 115 q 656 63 654 77 q 661 40 659 48 q 663 31 663 32 q 636 6 663 14 q 587 -1 610 -1 q 575 2 581 -1 q 565 12 569 5 q 557 24 560 18 q 551 42 554 31 q 547 59 548 53 q 543 79 545 66 q 539 96 540 92 q 306 -8 445 -8 q 134 44 199 -8 q 68 200 68 97 m 193 207 q 223 122 193 151 q 311 93 253 93 q 429 118 380 93 q 529 189 477 143 l 529 353 q 328 338 388 351 q 193 207 193 310 m 211 819 q 220 844 211 829 l 297 966 q 361 997 317 997 l 396 997 q 460 966 440 997 l 539 844 q 547 821 547 832 q 514 800 547 800 l 511 800 q 465 818 485 800 l 378 921 l 293 818 q 245 800 273 800 l 243 800 q 211 819 211 800 z "},"ã":{"ha":757,"x_min":68,"x_max":663,"o":"m 68 200 q 77 270 68 238 q 101 326 86 302 q 140 369 116 350 q 190 401 165 389 q 250 424 215 414 q 315 438 285 433 q 386 447 345 444 q 457 451 426 450 q 529 453 488 452 l 529 518 q 493 603 529 570 q 376 635 457 635 q 270 620 321 635 q 191 591 220 606 q 160 576 163 576 q 129 604 146 576 q 111 646 111 632 q 146 684 111 664 q 244 720 182 705 q 372 734 307 734 q 574 677 502 734 q 646 517 646 620 l 646 205 q 647 144 646 174 q 651 96 649 115 q 656 63 654 77 q 661 40 659 48 q 663 31 663 32 q 636 6 663 14 q 587 -1 610 -1 q 575 2 581 -1 q 565 12 569 5 q 557 24 560 18 q 551 42 554 31 q 547 59 548 53 q 543 79 545 66 q 539 96 540 92 q 306 -8 445 -8 q 134 44 199 -8 q 68 200 68 97 m 141 836 q 140 839 141 836 q 139 847 138 841 q 143 863 140 852 q 196 936 165 914 q 271 958 227 958 q 398 928 314 958 q 513 899 482 899 q 546 907 532 899 q 574 939 559 916 q 593 958 584 954 q 615 956 603 961 l 627 951 q 642 939 640 947 q 636 916 644 931 q 583 843 614 865 q 510 821 553 821 q 379 850 465 821 q 264 880 294 880 q 233 871 246 880 q 205 839 220 862 q 188 820 195 823 q 167 822 180 817 l 153 828 q 141 836 144 831 m 193 207 q 223 122 193 151 q 311 93 253 93 q 429 118 380 93 q 529 189 477 143 l 529 353 q 328 338 388 351 q 193 207 193 310 z "},"ä":{"ha":757,"x_min":68,"x_max":663,"o":"m 68 200 q 77 270 68 238 q 101 326 86 302 q 140 369 116 350 q 190 401 165 389 q 250 424 215 414 q 315 438 285 433 q 386 447 345 444 q 457 451 426 450 q 529 453 488 452 l 529 518 q 493 603 529 570 q 376 635 457 635 q 270 620 321 635 q 191 591 220 606 q 160 576 163 576 q 129 604 146 576 q 111 646 111 632 q 146 684 111 664 q 244 720 182 705 q 372 734 307 734 q 574 677 502 734 q 646 517 646 620 l 646 205 q 647 144 646 174 q 651 96 649 115 q 656 63 654 77 q 661 40 659 48 q 663 31 663 32 q 636 6 663 14 q 587 -1 610 -1 q 575 2 581 -1 q 565 12 569 5 q 557 24 560 18 q 551 42 554 31 q 547 59 548 53 q 543 79 545 66 q 539 96 540 92 q 306 -8 445 -8 q 134 44 199 -8 q 68 200 68 97 m 193 207 q 223 122 193 151 q 311 93 253 93 q 429 118 380 93 q 529 189 477 143 l 529 353 q 328 338 388 351 q 193 207 193 310 m 221 873 l 221 945 q 282 975 221 975 q 338 945 338 975 l 338 873 q 277 843 338 843 q 221 873 221 843 m 421 873 l 421 945 q 482 975 421 975 q 538 945 538 975 l 538 873 q 476 843 538 843 q 421 873 421 843 z "},"å":{"ha":757,"x_min":68,"x_max":663,"o":"m 68 200 q 77 270 68 238 q 101 326 86 302 q 140 369 116 350 q 190 401 165 389 q 250 424 215 414 q 315 438 285 433 q 386 447 345 444 q 457 451 426 450 q 529 453 488 452 l 529 518 q 493 603 529 570 q 376 635 457 635 q 270 620 321 635 q 191 591 220 606 q 160 576 163 576 q 129 604 146 576 q 111 646 111 632 q 146 684 111 664 q 244 720 182 705 q 372 734 307 734 q 574 677 502 734 q 646 517 646 620 l 646 205 q 647 144 646 174 q 651 96 649 115 q 656 63 654 77 q 661 40 659 48 q 663 31 663 32 q 636 6 663 14 q 587 -1 610 -1 q 575 2 581 -1 q 565 12 569 5 q 557 24 560 18 q 551 42 554 31 q 547 59 548 53 q 543 79 545 66 q 539 96 540 92 q 306 -8 445 -8 q 134 44 199 -8 q 68 200 68 97 m 193 207 q 223 122 193 151 q 311 93 253 93 q 429 118 380 93 q 529 189 477 143 l 529 353 q 328 338 388 351 q 193 207 193 310 m 296 817 q 279 834 296 817 q 262 900 262 851 q 296 983 262 949 q 379 1018 330 1018 q 463 983 428 1018 q 497 900 497 949 q 463 817 497 851 q 379 783 428 783 q 296 817 330 783 m 331 949 q 321 939 331 949 q 311 900 311 929 q 331 851 311 871 q 379 832 350 832 q 429 852 408 832 q 449 900 449 871 q 429 949 449 929 q 379 970 408 970 q 331 949 351 970 z "},"æ":{"ha":1151,"x_min":62,"x_max":1075,"o":"m 62 200 q 75 275 62 241 q 108 332 87 309 q 160 374 128 356 q 225 402 192 391 q 302 419 258 412 q 384 429 346 427 q 469 433 422 432 q 509 578 477 519 q 371 635 473 635 q 265 620 315 635 q 185 591 214 606 q 154 576 157 576 q 123 604 140 576 q 106 646 106 632 q 141 684 106 664 q 239 720 176 705 q 367 734 301 734 q 578 668 504 734 q 789 734 656 734 q 1003 647 930 734 q 1075 392 1075 560 q 1058 357 1075 378 q 1029 335 1042 335 l 590 335 q 650 150 598 209 q 804 92 701 92 q 885 101 846 92 q 946 121 924 110 q 986 141 969 132 q 1007 150 1004 150 q 1038 122 1021 150 q 1055 81 1055 94 q 1023 43 1055 64 q 931 7 991 22 q 806 -8 871 -8 q 551 79 635 -8 q 300 -8 446 -8 q 128 44 193 -8 q 62 200 62 97 m 187 207 q 217 122 187 151 q 306 93 248 93 q 409 112 364 93 q 497 165 454 131 q 465 334 467 235 q 364 328 407 332 q 278 310 321 323 q 211 272 234 298 q 187 207 187 245 m 590 435 l 951 435 q 785 635 951 635 q 590 435 604 635 z "},"ç":{"ha":673,"x_min":72,"x_max":632,"o":"m 72 367 q 91 516 72 451 q 142 622 111 582 q 217 688 173 663 q 306 724 260 714 q 401 734 351 734 q 546 715 482 734 q 610 671 610 696 q 594 624 610 652 q 566 596 578 596 q 562 597 564 596 q 557 599 560 597 q 550 602 553 600 q 399 635 473 635 q 197 370 197 635 q 247 157 197 222 q 412 92 296 92 q 570 127 496 92 q 577 130 573 129 q 582 133 581 132 q 585 134 584 134 q 615 106 598 134 q 632 62 632 79 q 571 16 632 39 q 428 -8 510 -6 l 411 -68 l 416 -68 q 449 -71 432 -68 q 486 -84 465 -75 q 521 -115 507 -93 q 534 -168 534 -137 q 375 -292 534 -292 q 268 -275 321 -292 q 215 -232 215 -258 q 241 -196 215 -196 q 288 -210 249 -196 q 357 -224 326 -224 q 436 -175 436 -224 q 422 -141 436 -154 q 390 -125 408 -129 q 359 -114 373 -121 q 345 -94 345 -106 q 368 -7 345 -82 q 145 93 219 3 q 72 367 72 182 z "},"è":{"ha":748,"x_min":77,"x_max":686,"o":"m 77 358 q 159 638 77 543 q 400 734 241 734 q 614 642 543 734 q 686 372 686 550 q 669 337 686 359 q 640 315 652 315 l 201 315 q 261 145 210 199 q 415 92 312 92 q 495 101 456 92 q 557 121 534 110 q 597 141 580 132 q 618 150 614 150 q 649 122 631 150 q 667 81 667 94 q 647 53 667 68 q 595 24 627 37 q 514 1 562 10 q 416 -8 467 -8 q 160 82 243 -8 q 77 358 77 172 m 201 415 l 562 415 q 396 635 562 635 q 201 415 216 635 m 211 999 q 278 1017 211 1017 q 364 981 343 1017 q 430 864 415 892 q 444 827 444 836 q 412 812 444 812 q 342 838 365 812 q 222 976 227 968 q 211 999 211 991 z "},"é":{"ha":748,"x_min":77,"x_max":686,"o":"m 77 358 q 159 638 77 543 q 400 734 241 734 q 614 642 543 734 q 686 372 686 550 q 669 337 686 359 q 640 315 652 315 l 201 315 q 261 145 210 199 q 415 92 312 92 q 495 101 456 92 q 557 121 534 110 q 597 141 580 132 q 618 150 614 150 q 649 122 631 150 q 667 81 667 94 q 647 53 667 68 q 595 24 627 37 q 514 1 562 10 q 416 -8 467 -8 q 160 82 243 -8 q 77 358 77 172 m 201 415 l 562 415 q 396 635 562 635 q 201 415 216 635 m 319 827 q 333 862 319 836 q 400 981 347 888 q 486 1017 421 1017 q 553 999 553 1017 q 541 975 553 989 q 474 897 530 960 q 422 838 443 861 q 351 812 399 812 q 319 827 319 812 z "},"ê":{"ha":748,"x_min":77,"x_max":686,"o":"m 77 358 q 159 638 77 543 q 400 734 241 734 q 614 642 543 734 q 686 372 686 550 q 669 337 686 359 q 640 315 652 315 l 201 315 q 261 145 210 199 q 415 92 312 92 q 495 101 456 92 q 557 121 534 110 q 597 141 580 132 q 618 150 614 150 q 649 122 631 150 q 667 81 667 94 q 647 53 667 68 q 595 24 627 37 q 514 1 562 10 q 416 -8 467 -8 q 160 82 243 -8 q 77 358 77 172 m 201 415 l 562 415 q 396 635 562 635 q 201 415 216 635 m 207 819 q 215 844 207 830 l 293 966 q 357 997 313 997 l 392 997 q 456 966 436 997 l 534 844 q 543 821 543 831 q 510 800 543 800 l 507 800 q 461 818 481 800 l 374 921 l 289 818 q 241 800 269 800 l 239 800 q 207 819 207 800 z "},"ë":{"ha":748,"x_min":77,"x_max":686,"o":"m 77 358 q 159 638 77 543 q 400 734 241 734 q 614 642 543 734 q 686 372 686 550 q 669 337 686 359 q 640 315 652 315 l 201 315 q 261 145 210 199 q 415 92 312 92 q 495 101 456 92 q 557 121 534 110 q 597 141 580 132 q 618 150 614 150 q 649 122 631 150 q 667 81 667 94 q 647 53 667 68 q 595 24 627 37 q 514 1 562 10 q 416 -8 467 -8 q 160 82 243 -8 q 77 358 77 172 m 201 415 l 562 415 q 396 635 562 635 q 201 415 216 635 m 216 873 l 216 945 q 278 975 216 975 q 334 945 334 975 l 334 873 q 272 843 334 843 q 216 873 216 843 m 416 873 l 416 945 q 478 975 416 975 q 533 945 533 975 l 533 873 q 472 843 533 843 q 416 873 416 843 z "},"ì":{"ha":368,"x_min":21,"x_max":254,"o":"m 21 999 q 87 1017 21 1017 q 174 981 153 1017 q 240 862 227 888 q 254 827 254 836 q 222 812 254 812 q 151 838 174 812 q 100 897 131 861 q 33 974 45 958 q 21 999 21 989 m 126 28 l 126 699 q 182 729 126 729 l 187 729 q 243 699 243 729 l 243 28 q 187 -3 243 -3 l 182 -3 q 126 28 126 -3 z "},"í":{"ha":368,"x_min":126,"x_max":363,"o":"m 126 28 l 126 699 q 182 729 126 729 l 187 729 q 243 699 243 729 l 243 28 q 187 -3 243 -3 l 182 -3 q 126 28 126 -3 m 129 827 q 143 862 129 836 q 210 981 157 888 q 296 1017 231 1017 q 363 999 363 1017 q 291 905 363 987 q 232 838 256 865 q 161 812 209 812 q 129 827 129 812 z "},"î":{"ha":368,"x_min":17,"x_max":353,"o":"m 17 819 q 25 844 17 830 l 103 966 q 167 997 123 997 l 201 997 q 265 966 245 997 l 345 844 q 353 821 353 832 q 319 800 353 800 l 317 800 q 271 818 290 800 l 183 921 l 98 818 q 52 800 79 800 l 49 800 q 17 819 17 800 m 126 28 l 126 699 q 182 729 126 729 l 187 729 q 243 699 243 729 l 243 28 q 187 -3 243 -3 l 182 -3 q 126 28 126 -3 z "},"ï":{"ha":368,"x_min":26,"x_max":343,"o":"m 26 873 l 26 945 q 87 975 26 975 q 143 945 143 975 l 143 873 q 82 843 143 843 q 26 873 26 843 m 126 28 l 126 699 q 182 729 126 729 l 187 729 q 243 699 243 729 l 243 28 q 187 -3 243 -3 l 182 -3 q 126 28 126 -3 m 227 873 l 227 945 q 288 975 227 975 q 343 945 343 975 l 343 873 q 282 843 343 843 q 227 873 227 843 z "},"ð":{"ha":790,"x_min":77,"x_max":714,"o":"m 77 359 q 160 637 77 540 q 399 734 243 734 q 510 718 460 734 q 446 843 479 785 q 326 827 327 827 q 301 841 312 827 q 290 871 290 855 q 311 889 290 885 l 411 903 q 375 970 375 955 q 397 989 375 985 q 435 991 416 991 q 471 975 456 991 q 517 917 511 924 l 625 932 q 651 915 642 932 q 660 888 660 899 q 639 869 660 871 l 555 859 q 714 359 714 610 q 634 85 714 179 q 399 -8 554 -8 q 159 86 241 -8 q 77 359 77 180 m 196 363 q 244 158 196 224 q 395 92 293 92 q 545 158 496 92 q 593 363 593 224 q 545 568 593 502 q 395 635 496 635 q 245 568 294 635 q 196 363 196 502 z "},"ñ":{"ha":773,"x_min":103,"x_max":669,"o":"m 103 690 q 129 715 103 707 q 178 722 155 722 q 190 720 184 722 q 200 710 196 717 q 208 698 205 703 q 215 682 212 692 q 219 665 218 671 q 223 647 220 659 q 227 631 226 634 q 328 707 271 680 q 443 734 385 734 q 609 675 549 734 q 669 510 669 615 l 669 28 q 614 -3 669 -3 l 608 -3 q 553 28 553 -3 l 553 498 q 515 598 553 562 q 411 633 478 633 q 317 607 364 633 q 236 536 271 581 l 236 28 q 180 -3 236 -3 l 175 -3 q 119 28 119 -3 l 119 515 q 118 576 119 547 q 114 625 116 606 q 109 658 111 644 q 105 681 106 673 q 103 690 103 689 m 161 828 q 148 841 149 833 q 151 863 146 849 q 205 936 174 913 q 279 958 236 958 q 407 928 323 958 q 521 899 490 899 q 554 907 540 899 q 582 939 568 916 q 624 956 600 966 l 635 951 q 650 939 648 947 q 644 916 652 931 q 591 843 622 865 q 518 821 561 821 q 387 850 473 821 q 272 880 302 880 q 241 871 254 880 q 214 839 229 862 q 196 820 203 823 q 175 822 189 817 l 161 828 z "},"ò":{"ha":790,"x_min":77,"x_max":714,"o":"m 77 359 q 160 637 77 540 q 399 734 243 734 q 633 637 551 734 q 714 359 714 541 q 634 85 714 179 q 399 -8 554 -8 q 159 86 241 -8 q 77 359 77 180 m 199 363 q 246 158 199 224 q 395 92 293 92 q 545 158 496 92 q 593 363 593 224 q 545 568 593 502 q 395 635 496 635 q 246 569 294 635 q 199 363 199 503 m 232 999 q 298 1017 232 1017 q 385 981 363 1017 q 451 862 437 888 q 465 827 465 836 q 433 812 465 812 q 363 838 386 812 q 243 976 248 968 q 232 999 232 991 z "},"ó":{"ha":790,"x_min":77,"x_max":714,"o":"m 77 359 q 160 637 77 540 q 399 734 243 734 q 633 637 551 734 q 714 359 714 541 q 634 85 714 179 q 399 -8 554 -8 q 159 86 241 -8 q 77 359 77 180 m 199 363 q 246 158 199 224 q 395 92 293 92 q 545 158 496 92 q 593 363 593 224 q 545 568 593 502 q 395 635 496 635 q 246 569 294 635 q 199 363 199 503 m 340 827 q 354 862 340 836 q 421 981 368 888 q 507 1017 442 1017 q 574 999 574 1017 q 502 905 574 987 q 443 838 467 865 q 372 812 420 812 q 340 827 340 812 z "},"ô":{"ha":790,"x_min":77,"x_max":714,"o":"m 77 359 q 160 637 77 540 q 399 734 243 734 q 633 637 551 734 q 714 359 714 541 q 634 85 714 179 q 399 -8 554 -8 q 159 86 241 -8 q 77 359 77 180 m 199 363 q 246 158 199 224 q 395 92 293 92 q 545 158 496 92 q 593 363 593 224 q 545 568 593 502 q 395 635 496 635 q 246 569 294 635 q 199 363 199 503 m 228 819 q 236 844 228 830 l 314 966 q 378 997 334 997 l 412 997 q 476 966 456 997 l 555 844 q 564 821 564 832 q 530 800 564 800 l 528 800 q 482 818 502 800 l 395 921 l 310 818 q 262 800 290 800 l 260 800 q 228 819 228 800 z "},"õ":{"ha":790,"x_min":77,"x_max":714,"o":"m 77 359 q 160 637 77 540 q 399 734 243 734 q 633 637 551 734 q 714 359 714 541 q 634 85 714 179 q 399 -8 554 -8 q 159 86 241 -8 q 77 359 77 180 m 158 836 q 157 839 158 836 q 156 847 155 841 q 160 863 157 852 q 213 936 182 914 q 288 958 244 958 q 415 928 331 958 q 529 899 498 899 q 562 907 548 899 q 590 939 576 916 q 632 956 608 966 l 643 951 q 659 939 656 947 q 653 916 661 931 q 600 843 631 865 q 526 821 569 821 q 396 850 481 821 q 281 880 311 880 q 250 871 263 880 q 222 839 237 862 q 204 820 212 823 q 183 822 197 817 l 170 828 q 158 836 161 831 m 199 363 q 246 158 199 224 q 395 92 293 92 q 545 158 496 92 q 593 363 593 224 q 545 568 593 502 q 395 635 496 635 q 246 569 294 635 q 199 363 199 503 z "},"ö":{"ha":790,"x_min":77,"x_max":714,"o":"m 77 359 q 160 637 77 540 q 399 734 243 734 q 633 637 551 734 q 714 359 714 541 q 634 85 714 179 q 399 -8 554 -8 q 159 86 241 -8 q 77 359 77 180 m 199 363 q 246 158 199 224 q 395 92 293 92 q 545 158 496 92 q 593 363 593 224 q 545 568 593 502 q 395 635 496 635 q 246 569 294 635 q 199 363 199 503 m 237 873 l 237 945 q 298 975 237 975 q 354 945 354 975 l 354 873 q 293 843 354 843 q 237 873 237 843 m 437 873 l 437 945 q 498 975 437 975 q 554 945 554 975 l 554 873 q 493 843 554 843 q 437 873 437 843 z "},"÷":{"ha":777,"x_min":66,"x_max":711,"o":"m 66 315 l 66 325 q 109 367 66 367 l 669 367 q 711 325 711 367 l 711 315 q 669 273 711 273 l 109 273 q 78 284 89 273 q 66 315 66 296 m 330 28 l 330 98 q 386 129 330 129 l 392 129 q 447 98 447 129 l 447 28 q 392 -3 447 -3 l 386 -3 q 330 28 330 -3 m 330 542 l 330 612 q 386 643 330 643 l 392 643 q 447 612 447 643 l 447 542 q 392 511 447 511 l 386 511 q 330 542 330 511 z "},"ø":{"ha":790,"x_min":77,"x_max":715,"o":"m 77 359 q 87 478 77 425 q 115 570 98 532 q 158 637 133 608 q 211 685 184 667 q 272 714 239 703 q 335 729 305 725 q 399 733 366 733 q 618 657 538 733 l 665 713 q 685 724 676 724 q 704 713 693 724 q 715 694 715 703 q 707 675 715 686 l 653 612 q 714 359 714 519 q 695 202 714 269 q 645 95 675 134 q 572 33 615 56 q 488 1 528 9 q 399 -7 447 -7 q 180 61 258 -7 l 140 14 q 121 3 130 3 q 100 13 112 3 q 89 32 89 24 q 98 52 89 39 l 142 103 q 77 359 77 193 m 197 363 q 222 197 197 256 l 543 570 q 395 633 495 633 q 248 571 298 633 q 197 363 197 508 m 254 146 q 395 93 301 93 q 543 155 492 93 q 593 363 593 218 q 571 517 593 461 l 254 146 z "},"ù":{"ha":773,"x_min":104,"x_max":671,"o":"m 104 216 l 104 699 q 160 729 104 729 l 165 729 q 221 699 221 729 l 221 228 q 258 129 221 164 q 363 93 296 93 q 456 119 410 93 q 538 191 503 146 l 538 699 q 593 729 538 729 l 599 729 q 654 699 654 729 l 654 205 q 656 144 654 174 q 660 96 658 115 q 665 63 663 77 q 669 40 667 48 q 671 31 671 32 q 645 6 671 14 q 596 -1 619 -1 q 584 2 589 -1 q 573 12 578 5 q 566 24 569 19 q 559 42 562 30 q 555 59 556 54 q 551 78 553 64 q 547 96 548 92 q 446 19 503 47 q 330 -8 389 -8 q 164 52 224 -8 q 104 216 104 111 m 224 999 q 290 1017 224 1017 q 376 981 355 1017 q 443 862 429 888 q 457 827 457 836 q 425 812 457 812 q 354 838 377 812 q 302 897 334 861 q 236 974 248 958 q 224 999 224 989 z "},"ú":{"ha":773,"x_min":104,"x_max":671,"o":"m 104 216 l 104 699 q 160 729 104 729 l 165 729 q 221 699 221 729 l 221 228 q 258 129 221 164 q 363 93 296 93 q 456 119 410 93 q 538 191 503 146 l 538 699 q 593 729 538 729 l 599 729 q 654 699 654 729 l 654 205 q 656 144 654 174 q 660 96 658 115 q 665 63 663 77 q 669 40 667 48 q 671 31 671 32 q 645 6 671 14 q 596 -1 619 -1 q 584 2 589 -1 q 573 12 578 5 q 566 24 569 19 q 559 42 562 30 q 555 59 556 54 q 551 78 553 64 q 547 96 548 92 q 446 19 503 47 q 330 -8 389 -8 q 164 52 224 -8 q 104 216 104 111 m 332 827 q 346 862 332 836 q 412 981 359 888 q 498 1017 433 1017 q 566 999 566 1017 q 494 905 566 987 q 435 838 458 865 q 364 812 412 812 q 332 827 332 812 z "},"û":{"ha":773,"x_min":104,"x_max":671,"o":"m 104 216 l 104 699 q 160 729 104 729 l 165 729 q 221 699 221 729 l 221 228 q 258 129 221 164 q 363 93 296 93 q 456 119 410 93 q 538 191 503 146 l 538 699 q 593 729 538 729 l 599 729 q 654 699 654 729 l 654 205 q 656 144 654 174 q 660 96 658 115 q 665 63 663 77 q 669 40 667 48 q 671 31 671 32 q 645 6 671 14 q 596 -1 619 -1 q 584 2 589 -1 q 573 12 578 5 q 566 24 569 19 q 559 42 562 30 q 555 59 556 54 q 551 78 553 64 q 547 96 548 92 q 446 19 503 47 q 330 -8 389 -8 q 164 52 224 -8 q 104 216 104 111 m 220 819 q 228 844 220 830 l 306 966 q 370 997 326 997 l 404 997 q 468 966 448 997 l 547 844 q 555 821 555 832 q 522 800 555 800 l 519 800 q 473 818 493 800 l 386 921 l 301 818 q 254 800 281 800 l 252 800 q 220 819 220 800 z "},"ü":{"ha":773,"x_min":104,"x_max":671,"o":"m 104 216 l 104 699 q 160 729 104 729 l 165 729 q 221 699 221 729 l 221 228 q 258 129 221 164 q 363 93 296 93 q 456 119 410 93 q 538 191 503 146 l 538 699 q 593 729 538 729 l 599 729 q 654 699 654 729 l 654 205 q 656 144 654 174 q 660 96 658 115 q 665 63 663 77 q 669 40 667 48 q 671 31 671 32 q 645 6 671 14 q 596 -1 619 -1 q 584 2 589 -1 q 573 12 578 5 q 566 24 569 19 q 559 42 562 30 q 555 59 556 54 q 551 78 553 64 q 547 96 548 92 q 446 19 503 47 q 330 -8 389 -8 q 164 52 224 -8 q 104 216 104 111 m 229 873 l 229 945 q 290 975 229 975 q 346 945 346 975 l 346 873 q 285 843 346 843 q 229 873 229 843 m 429 873 l 429 945 q 490 975 429 975 q 546 945 546 975 l 546 873 q 485 843 546 843 q 429 873 429 843 z "},"ý":{"ha":668,"x_min":25,"x_max":642,"o":"m 25 705 q 85 729 25 729 l 96 729 q 151 707 142 729 l 293 330 q 338 191 319 260 l 340 191 q 386 330 380 317 l 525 707 q 582 729 532 729 l 586 729 q 642 705 642 729 q 637 686 642 699 l 281 -260 q 215 -289 269 -289 l 195 -289 q 149 -267 149 -289 q 155 -243 149 -261 l 272 39 l 29 688 q 25 705 25 700 m 279 827 q 294 864 279 836 q 359 981 309 892 q 446 1017 380 1017 q 513 999 513 1017 q 441 905 513 987 q 382 838 406 865 q 311 812 359 812 q 279 827 279 812 z "},"þ":{"ha":791,"x_min":118,"x_max":715,"o":"m 118 -258 l 118 1014 q 174 1044 118 1044 l 179 1044 q 235 1014 235 1044 l 235 640 q 446 734 331 734 q 642 631 569 734 q 715 361 715 527 q 638 89 715 186 q 433 -8 561 -8 q 235 62 327 -8 l 235 -258 q 179 -289 235 -289 l 174 -289 q 118 -258 118 -289 m 235 157 q 407 94 311 94 q 546 162 499 96 q 593 353 593 228 q 549 561 593 488 q 422 633 505 633 q 326 609 376 633 q 235 538 277 584 l 235 157 z "},"ÿ":{"ha":668,"x_min":25,"x_max":642,"o":"m 25 705 q 85 729 25 729 l 96 729 q 151 707 142 729 l 293 330 q 338 191 319 260 l 340 191 q 386 330 380 317 l 525 707 q 582 729 532 729 l 586 729 q 642 705 642 729 q 637 686 642 699 l 281 -260 q 215 -289 269 -289 l 195 -289 q 149 -267 149 -289 q 155 -243 149 -261 l 272 39 l 29 688 q 25 705 25 700 m 176 873 l 176 945 q 237 975 176 975 q 293 945 293 975 l 293 873 q 232 843 293 843 q 176 873 176 843 m 376 873 l 376 945 q 437 975 376 975 q 493 945 493 975 l 493 873 q 432 843 493 843 q 376 873 376 843 z "},"Œ":{"ha":1418,"x_min":79,"x_max":1372,"o":"m 79 489 q 189 856 79 732 q 507 981 298 981 q 812 867 706 981 l 812 930 q 854 972 812 972 l 1343 972 q 1371 930 1371 972 l 1371 908 q 1343 867 1371 867 l 935 867 l 935 550 l 1301 550 q 1329 509 1329 550 l 1329 486 q 1301 444 1329 444 l 935 444 l 935 106 l 1344 106 q 1372 64 1372 106 l 1372 41 q 1344 0 1372 0 l 854 0 q 823 10 833 0 q 812 41 812 20 l 812 109 q 507 -8 707 -8 q 189 119 298 -8 q 79 489 79 245 m 205 489 q 283 197 205 298 q 507 97 360 97 q 732 197 654 97 q 810 489 810 298 q 732 777 810 680 q 507 875 655 875 q 282 777 359 875 q 205 489 205 680 z "},"œ":{"ha":1209,"x_min":77,"x_max":1133,"o":"m 77 359 q 160 637 77 540 q 399 734 243 734 q 619 653 540 734 q 847 734 701 734 q 1061 642 989 734 q 1133 372 1133 550 q 1117 337 1133 359 q 1088 315 1100 315 l 648 315 q 708 145 656 199 q 863 92 760 92 q 943 101 904 92 q 1005 121 982 110 q 1045 141 1027 132 q 1065 150 1062 150 q 1096 122 1079 150 q 1114 81 1114 94 q 1081 43 1114 64 q 989 7 1049 22 q 864 -8 930 -8 q 621 69 702 -8 q 399 -8 541 -8 q 159 86 241 -8 q 77 359 77 180 m 199 363 q 246 158 199 224 q 395 92 293 92 q 558 157 508 92 q 524 358 524 236 q 561 566 524 483 q 395 635 509 635 q 246 569 294 635 q 199 363 199 503 m 648 415 l 1010 415 q 843 635 1010 635 q 648 415 663 635 z "},"Ÿ":{"ha":776,"x_min":25,"x_max":751,"o":"m 25 951 q 89 975 25 975 l 104 975 q 164 954 151 975 l 392 612 l 625 956 q 688 975 637 975 l 697 975 q 751 951 751 973 q 741 926 751 945 l 449 494 l 449 28 q 393 -3 449 -3 l 382 -3 q 326 28 326 -3 l 326 498 l 36 926 q 25 951 25 941 m 231 1120 l 231 1190 q 292 1221 231 1221 q 347 1190 347 1221 l 347 1120 q 286 1089 347 1089 q 231 1120 231 1089 m 431 1120 l 431 1190 q 492 1221 431 1221 q 547 1190 547 1221 l 547 1120 q 486 1089 547 1089 q 431 1120 431 1089 z "},"ˆ":{"ha":444,"x_min":50,"x_max":386,"o":"m 50 819 q 58 844 50 830 l 136 966 q 200 997 156 997 l 235 997 q 298 966 279 997 l 378 844 q 386 821 386 832 q 353 800 386 800 l 350 800 q 304 818 324 800 l 216 921 l 132 818 q 85 800 113 800 l 82 800 q 50 819 50 800 z "},"˜":{"ha":507,"x_min":14,"x_max":517,"o":"m 17 836 q 15 839 17 836 q 14 847 14 841 q 18 863 15 852 q 72 936 41 914 q 146 958 102 958 q 273 928 189 958 q 387 899 357 899 q 420 907 406 899 q 449 939 435 916 q 469 958 459 954 q 490 956 478 961 l 501 951 q 517 939 515 947 q 511 916 519 931 q 458 843 489 865 q 385 821 427 821 q 254 850 339 821 q 139 880 169 880 q 109 871 121 880 q 81 839 96 862 q 63 820 71 823 q 41 822 55 817 l 28 828 q 17 836 20 831 z "}," ":{"ha":632,"x_min":0,"x_max":0,"o":""}," ":{"ha":1264,"x_min":0,"x_max":0,"o":""}," ":{"ha":632,"x_min":0,"x_max":0,"o":""}," ":{"ha":1264,"x_min":0,"x_max":0,"o":""}," ":{"ha":421,"x_min":0,"x_max":0,"o":""}," ":{"ha":316,"x_min":0,"x_max":0,"o":""}," ":{"ha":210,"x_min":0,"x_max":0,"o":""}," ":{"ha":210,"x_min":0,"x_max":0,"o":""}," ":{"ha":158,"x_min":0,"x_max":0,"o":""}," ":{"ha":252,"x_min":0,"x_max":0,"o":""}," ":{"ha":70,"x_min":0,"x_max":0,"o":""},"‐":{"ha":444,"x_min":61,"x_max":379,"o":"m 61 361 l 61 375 q 89 416 61 416 l 351 416 q 379 375 379 416 l 379 361 q 351 319 379 319 l 89 319 q 61 361 61 319 z "},"‑":{"ha":444,"x_min":61,"x_max":379,"o":"m 61 361 l 61 375 q 89 416 61 416 l 351 416 q 379 375 379 416 l 379 361 q 351 319 379 319 l 89 319 q 61 361 61 319 z "},"‒":{"ha":444,"x_min":61,"x_max":379,"o":"m 61 361 l 61 375 q 89 416 61 416 l 351 416 q 379 375 379 416 l 379 361 q 351 319 379 319 l 89 319 q 61 361 61 319 z "},"–":{"ha":694,"x_min":0,"x_max":694,"o":"m 0 361 l 0 375 q 28 416 0 416 l 667 416 q 694 375 694 416 l 694 361 q 667 319 694 319 l 28 319 q 0 361 0 319 z "},"—":{"ha":1389,"x_min":0,"x_max":1389,"o":"m 0 361 l 0 375 q 28 416 0 416 l 1361 416 q 1389 375 1389 416 l 1389 361 q 1361 319 1389 319 l 28 319 q 0 361 0 319 z "},"‘":{"ha":294,"x_min":81,"x_max":264,"o":"m 81 754 q 96 866 81 813 q 135 953 112 920 q 182 1006 158 987 q 224 1026 205 1026 q 264 1006 264 1026 q 252 972 264 997 q 204 760 204 882 q 190 727 204 739 q 149 715 176 715 l 136 715 q 96 726 111 715 q 81 754 81 736 z "},"’":{"ha":294,"x_min":45,"x_max":228,"o":"m 45 757 q 57 790 45 766 q 104 1003 104 885 q 119 1035 104 1023 q 160 1047 133 1047 l 172 1047 q 213 1037 198 1047 q 228 1008 228 1026 q 212 896 228 949 q 174 809 197 843 q 127 755 151 775 q 85 736 103 736 q 45 757 45 736 z "},"‚":{"ha":275,"x_min":17,"x_max":200,"o":"m 17 -140 q 29 -107 17 -132 q 77 106 77 -12 q 91 138 77 126 q 132 150 105 150 l 144 150 q 185 139 170 150 q 200 111 200 129 q 184 -1 200 52 q 146 -88 169 -54 q 99 -142 123 -122 q 57 -161 75 -161 q 17 -140 17 -161 z "},"“":{"ha":486,"x_min":56,"x_max":432,"o":"m 56 754 q 71 866 56 813 q 110 953 87 920 q 157 1006 133 987 q 199 1026 180 1026 q 239 1006 239 1026 q 227 972 239 997 q 179 760 179 882 q 165 727 179 739 q 123 715 151 715 l 111 715 q 71 726 85 715 q 56 754 56 736 m 249 754 q 264 866 249 813 q 303 953 280 920 q 350 1006 326 987 q 392 1026 374 1026 q 432 1006 432 1026 q 419 972 432 998 q 372 760 372 883 q 358 727 372 739 q 317 715 344 715 l 304 715 q 264 726 279 715 q 249 754 249 736 z "},"”":{"ha":486,"x_min":47,"x_max":424,"o":"m 47 757 q 60 790 47 766 q 107 1003 107 885 q 121 1035 107 1023 q 163 1047 136 1047 l 175 1047 q 216 1037 201 1047 q 231 1008 231 1026 q 215 896 231 949 q 176 809 199 843 q 130 755 153 775 q 87 736 106 736 q 47 757 47 736 m 240 757 q 253 790 240 764 q 300 1003 300 884 q 314 1035 300 1023 q 355 1047 328 1047 l 368 1047 q 409 1037 394 1047 q 424 1008 424 1026 q 408 896 424 949 q 370 809 393 843 q 323 755 347 775 q 281 736 299 736 q 240 757 240 736 z "},"„":{"ha":467,"x_min":17,"x_max":393,"o":"m 17 -140 q 29 -107 17 -132 q 77 106 77 -12 q 91 138 77 126 q 132 150 105 150 l 144 150 q 185 139 170 150 q 200 111 200 129 q 184 -1 200 52 q 146 -88 169 -54 q 99 -142 123 -122 q 57 -161 75 -161 q 17 -140 17 -161 m 210 -140 q 222 -107 210 -133 q 269 106 269 -14 q 283 138 269 126 q 325 150 298 150 l 338 150 q 378 139 363 150 q 393 111 393 129 q 378 -1 393 52 q 339 -88 362 -54 q 292 -142 316 -122 q 250 -161 269 -161 q 210 -140 210 -161 z "},"•":{"ha":467,"x_min":58,"x_max":407,"o":"m 109 330 q 84 355 109 330 q 58 453 58 380 q 109 577 58 526 q 232 628 159 628 q 356 577 304 628 q 407 453 407 526 q 356 330 407 380 q 232 279 304 279 q 109 330 159 279 z "},"…":{"ha":857,"x_min":71,"x_max":785,"o":"m 71 28 l 71 119 q 126 150 71 150 l 150 150 q 205 119 205 150 l 205 28 q 150 -3 205 -3 l 126 -3 q 71 28 71 -3 m 361 28 l 361 119 q 416 150 361 150 l 440 150 q 496 119 496 150 l 496 28 q 440 -3 496 -3 l 416 -3 q 361 28 361 -3 m 650 28 l 650 119 q 705 150 650 150 l 729 150 q 785 119 785 150 l 785 28 q 729 -3 785 -3 l 705 -3 q 650 28 650 -3 z "}," ":{"ha":252,"x_min":0,"x_max":0,"o":""},"‹":{"ha":416,"x_min":64,"x_max":342,"o":"m 64 358 q 82 397 64 374 l 262 614 q 293 631 277 631 q 325 616 307 631 q 342 586 342 602 q 330 558 342 574 l 176 358 l 330 157 q 342 131 342 140 q 326 101 342 117 q 293 85 309 85 q 262 103 279 85 l 82 319 q 64 358 64 343 z "},"›":{"ha":416,"x_min":75,"x_max":353,"o":"m 75 131 q 86 157 75 142 l 240 358 l 86 558 q 75 586 75 573 q 92 616 75 602 q 123 631 109 631 q 154 614 139 631 l 335 397 q 353 358 353 375 q 335 319 353 342 l 154 103 q 123 85 138 85 q 91 101 107 85 q 75 131 75 117 z "}," ":{"ha":316,"x_min":0,"x_max":0,"o":""},"€":{"ha":833,"x_min":0,"x_max":764,"o":"m 0 370 l 0 379 q 28 421 0 421 l 96 421 q 94 486 94 442 q 96 550 94 529 l 28 550 q 0 591 0 550 l 0 602 q 28 643 0 643 l 107 643 q 239 895 134 810 q 507 981 345 981 q 671 952 597 981 q 745 895 745 924 q 727 848 745 877 q 697 819 710 819 q 679 829 694 819 q 641 850 663 838 q 582 871 620 861 q 504 880 545 880 q 322 824 391 880 q 231 643 254 768 l 616 643 q 644 602 644 643 l 644 591 q 616 550 644 550 l 220 550 q 218 485 218 529 q 220 421 218 441 l 616 421 q 644 379 644 421 l 644 370 q 616 328 644 328 l 231 328 q 323 149 254 207 q 493 92 393 92 q 581 102 538 92 q 649 126 624 113 q 692 151 673 140 q 715 161 711 161 q 746 133 728 161 q 764 92 764 105 q 730 50 764 73 q 634 9 696 26 q 504 -8 572 -8 q 104 328 155 -8 l 28 328 q 0 370 0 328 z "},"™":{"ha":1072,"x_min":41,"x_max":1007,"o":"m 41 936 l 41 949 q 57 972 41 972 l 424 972 q 439 949 439 972 l 439 936 q 424 913 439 913 l 277 913 l 277 440 q 244 424 277 424 l 239 424 q 207 440 207 424 l 207 913 l 57 913 q 41 936 41 913 m 489 440 l 489 957 q 519 974 489 974 l 549 974 q 581 960 574 974 l 729 703 l 749 654 l 770 699 l 917 960 q 950 974 926 974 l 977 974 q 1007 957 1007 974 l 1007 440 q 977 424 1007 424 l 971 424 q 939 440 939 424 l 939 861 l 935 861 l 782 587 q 765 578 777 578 l 733 578 q 717 587 722 578 l 561 865 l 557 865 l 557 440 q 525 424 557 424 l 519 424 q 489 440 489 424 z "},"◼":{"ha":729,"x_min":0,"x_max":729,"o":"m 0 0 l 0 729 l 729 729 l 729 0 l 0 0 z "},"ﬁ":{"ha":782,"x_min":66,"x_max":663,"o":"m 66 668 l 66 685 q 94 726 66 726 l 150 726 l 150 859 q 162 942 150 906 q 193 998 174 978 q 236 1030 211 1017 q 283 1046 262 1042 q 329 1050 305 1050 q 431 1008 431 1050 q 422 969 431 994 q 401 943 414 943 q 382 947 399 943 q 342 950 366 950 q 286 930 306 950 q 267 847 267 909 l 267 726 l 387 726 q 415 685 415 726 l 415 668 q 387 627 415 627 l 267 627 l 267 28 q 211 -3 267 -3 l 205 -3 q 150 28 150 -3 l 150 627 l 94 627 q 66 668 66 627 m 534 932 l 534 1014 q 590 1044 534 1044 l 607 1044 q 663 1014 663 1044 l 663 932 q 607 901 663 901 l 590 901 q 534 932 534 901 m 541 28 l 541 699 q 596 729 541 729 l 602 729 q 657 699 657 729 l 657 28 q 602 -3 657 -3 l 596 -3 q 541 28 541 -3 z "},"ﬂ":{"ha":821,"x_min":66,"x_max":808,"o":"m 66 668 l 66 685 q 94 726 66 726 l 150 726 l 150 859 q 162 942 150 906 q 193 998 174 978 q 236 1030 211 1017 q 283 1046 262 1042 q 329 1050 305 1050 q 431 1008 431 1050 q 422 969 431 994 q 401 943 414 943 q 382 947 399 943 q 342 950 366 950 q 286 930 306 950 q 267 847 267 909 l 267 726 l 387 726 q 415 685 415 726 l 415 668 q 387 627 415 627 l 267 627 l 267 28 q 211 -3 267 -3 l 205 -3 q 150 28 150 -3 l 150 627 l 94 627 q 66 668 66 627 m 528 183 l 528 1014 q 583 1044 528 1044 l 589 1044 q 644 1014 644 1044 l 644 195 q 720 92 644 92 q 760 95 743 92 q 779 98 777 98 q 800 73 792 98 q 808 33 808 47 q 707 -8 808 -8 q 661 -4 684 -8 q 614 13 639 0 q 570 46 589 26 q 540 101 552 66 q 528 183 528 137 z "}}}
